<svg width="377" height="884" viewBox="0 0 377 884" fill="none" xmlns="http://www.w3.org/2000/svg">
<path d="M29.1779 750.583C30.9339 752.254 33.2649 753.186 35.6886 753.186C38.1123 753.186 40.4432 752.254 42.1993 750.583L109.359 683.424C109.936 682.839 110.623 682.375 111.381 682.058C112.138 681.742 112.951 681.578 113.773 681.578C114.594 681.578 115.407 681.742 116.165 682.058C116.923 682.375 117.61 682.839 118.187 683.424L148.644 713.925C149.231 714.5 149.697 715.187 150.016 715.945C150.334 716.703 150.498 717.517 150.498 718.339C150.498 719.161 150.334 719.975 150.016 720.733C149.697 721.491 149.231 722.178 148.644 722.753L144.517 726.88C143.332 728.024 141.749 728.663 140.103 728.663C138.456 728.663 136.873 728.024 135.688 726.88L120.239 711.541C119.4 710.618 118.382 709.875 117.247 709.357C116.112 708.838 114.884 708.555 113.637 708.525C112.39 708.495 111.149 708.718 109.991 709.181C108.832 709.644 107.779 710.338 106.896 711.219C106.013 712.101 105.318 713.152 104.853 714.31C104.388 715.468 104.163 716.708 104.191 717.955C104.219 719.202 104.5 720.431 105.016 721.567C105.533 722.702 106.274 723.722 107.196 724.563L122.535 739.901C123.122 740.477 123.588 741.164 123.907 741.921C124.225 742.679 124.389 743.493 124.389 744.315C124.389 745.138 124.225 745.951 123.907 746.709C123.588 747.467 123.122 748.154 122.535 748.729L81.4842 789.846C79.7671 791.578 78.8038 793.918 78.8038 796.357C78.8038 798.796 79.7671 801.136 81.4842 802.868L107.659 829.087C109.412 830.686 111.713 831.548 114.085 831.495C116.456 831.442 118.716 830.477 120.395 828.801C122.074 827.125 123.043 824.867 123.1 822.495C123.158 820.123 122.299 817.821 120.703 816.066L105.364 800.727C104.78 800.15 104.315 799.463 103.999 798.705C103.682 797.947 103.519 797.134 103.519 796.313C103.519 795.491 103.682 794.678 103.999 793.921C104.315 793.163 104.78 792.476 105.364 791.899L161.577 735.686C162.762 734.542 164.344 733.903 165.991 733.903C167.637 733.903 169.22 734.542 170.405 735.686L200.509 765.79C201.09 766.368 201.552 767.056 201.867 767.813C202.182 768.571 202.345 769.383 202.345 770.204C202.345 771.024 202.182 771.837 201.867 772.594C201.552 773.352 201.09 774.039 200.509 774.618L185.28 789.824C183.556 791.557 182.589 793.902 182.589 796.346C182.589 798.79 183.556 801.135 185.28 802.868C187.016 804.586 189.359 805.55 191.802 805.55C194.244 805.55 196.588 804.586 198.324 802.868L224.455 776.604C226.177 774.875 227.144 772.534 227.144 770.093C227.144 767.653 226.177 765.312 224.455 763.583L120.261 659.389C118.529 657.666 116.184 656.698 113.74 656.698C111.296 656.698 108.951 657.666 107.218 659.389L29.1779 737.452C28.3084 738.31 27.618 739.332 27.1468 740.459C26.6756 741.586 26.433 742.796 26.433 744.017C26.433 745.239 26.6756 746.449 27.1468 747.576C27.618 748.703 28.3084 749.725 29.1779 750.583Z" fill="#C7D07F"/>
<path d="M3.04653 776.603L107.24 880.797C108.975 882.515 111.319 883.479 113.762 883.479C116.204 883.479 118.548 882.515 120.283 880.797L172.523 828.468C174.252 826.738 175.224 824.392 175.224 821.947C175.224 819.501 174.252 817.155 172.523 815.425L157.493 800.395C156.909 799.818 156.445 799.131 156.128 798.373C155.811 797.615 155.648 796.802 155.648 795.981C155.648 795.16 155.811 794.347 156.128 793.589C156.445 792.831 156.909 792.144 157.493 791.567L172.722 776.339C174.318 774.583 175.177 772.281 175.119 769.909C175.062 767.538 174.093 765.279 172.414 763.603C170.736 761.927 168.475 760.962 166.104 760.909C163.732 760.856 161.431 761.718 159.678 763.317L133.569 789.426C131.84 791.156 130.869 793.502 130.869 795.948C130.869 798.394 131.84 800.74 133.569 802.47L148.599 817.499C149.181 818.078 149.643 818.766 149.958 819.523C150.273 820.281 150.435 821.093 150.435 821.913C150.435 822.734 150.273 823.546 149.958 824.304C149.643 825.061 149.181 825.749 148.599 826.327L118.142 856.784C117.567 857.372 116.88 857.838 116.122 858.157C115.364 858.475 114.551 858.639 113.728 858.639C112.906 858.639 112.092 858.475 111.334 858.157C110.577 857.838 109.89 857.372 109.314 856.784L53.0133 800.483C52.4288 799.906 51.9647 799.219 51.6479 798.461C51.3311 797.704 51.1679 796.891 51.1679 796.069C51.1679 795.248 51.3311 794.435 51.6479 793.677C51.9647 792.919 52.4288 792.232 53.0133 791.655L94.417 750.384C96.016 748.632 96.8785 746.33 96.8253 743.959C96.7721 741.587 95.8072 739.327 94.1311 737.648C92.455 735.969 90.1966 735 87.825 734.943C85.4533 734.886 83.1507 735.744 81.3956 737.341L40.0361 778.678C39.4607 779.265 38.774 779.732 38.016 780.05C37.2581 780.369 36.4442 780.533 35.622 780.533C34.7999 780.533 33.9861 780.369 33.2281 780.05C32.4702 779.732 31.7834 779.265 31.208 778.678L16.0238 763.516C14.2667 761.839 11.931 760.903 9.50202 760.903C7.07305 760.903 4.73746 761.839 2.98032 763.516C2.12447 764.379 1.44721 765.403 0.987279 766.528C0.527364 767.653 0.293798 768.858 0.299947 770.073C0.306097 771.289 0.551824 772.491 1.02311 773.612C1.49439 774.732 2.182 775.749 3.04653 776.603Z" fill="#C7D07F"/>
<path d="M28.8465 489.449C30.5973 491.129 32.9302 492.068 35.3571 492.068C37.7841 492.068 40.117 491.129 41.8679 489.449L109.027 422.289C109.603 421.702 110.289 421.236 111.047 420.917C111.805 420.599 112.619 420.435 113.441 420.435C114.263 420.435 115.077 420.599 115.835 420.917C116.593 421.236 117.28 421.702 117.855 422.289L148.378 452.812C148.963 453.389 149.427 454.076 149.744 454.834C150.061 455.592 150.224 456.405 150.224 457.226C150.224 458.048 150.061 458.861 149.744 459.618C149.427 460.376 148.963 461.064 148.378 461.64L144.251 465.768C143.066 466.911 141.484 467.55 139.837 467.55C138.191 467.55 136.608 466.911 135.423 465.768L120.084 450.429C118.342 448.761 116.016 447.842 113.604 447.868C111.193 447.895 108.887 448.864 107.182 450.57C105.477 452.275 104.507 454.581 104.481 456.992C104.454 459.404 105.373 461.73 107.041 463.472L122.38 478.921C122.97 479.495 123.439 480.181 123.759 480.94C124.079 481.698 124.244 482.512 124.244 483.335C124.244 484.158 124.079 484.973 123.759 485.731C123.439 486.489 122.97 487.176 122.38 487.749L81.1748 528.734C79.4457 530.464 78.4743 532.809 78.4743 535.255C78.4743 537.701 79.4457 540.047 81.1748 541.777L107.438 567.974C109.181 569.642 111.507 570.561 113.918 570.535C116.33 570.508 118.635 569.539 120.341 567.833C122.046 566.128 123.016 563.823 123.042 561.411C123.069 558.999 122.149 556.673 120.482 554.931L105.143 539.592C104.556 539.017 104.089 538.33 103.771 537.572C103.452 536.814 103.288 536 103.288 535.178C103.288 534.356 103.452 533.542 103.771 532.784C104.089 532.026 104.556 531.339 105.143 530.764L161.356 474.551C162.541 473.408 164.123 472.769 165.77 472.769C167.416 472.769 168.999 473.408 170.184 474.551L200.243 504.611C200.828 505.188 201.292 505.875 201.609 506.633C201.926 507.391 202.089 508.204 202.089 509.025C202.089 509.846 201.926 510.659 201.609 511.417C201.292 512.175 200.828 512.862 200.243 513.439L185.015 528.667C183.292 530.397 182.325 532.738 182.325 535.178C182.325 537.619 183.292 539.96 185.015 541.689C186.745 543.418 189.091 544.389 191.537 544.389C193.983 544.389 196.328 543.418 198.058 541.689L224.167 515.558C225.028 514.706 225.712 513.692 226.178 512.575C226.644 511.457 226.884 510.258 226.884 509.047C226.884 507.836 226.644 506.637 226.178 505.52C225.712 504.402 225.028 503.388 224.167 502.536L119.996 398.343C118.263 396.619 115.919 395.652 113.474 395.652C111.03 395.652 108.686 396.619 106.953 398.343L28.8465 476.449C27.1308 478.178 26.168 480.514 26.168 482.949C26.168 485.384 27.1308 487.721 28.8465 489.449Z" fill="#C7D07F"/>
<path d="M2.71563 515.426L106.909 619.597C107.764 620.452 108.778 621.131 109.896 621.594C111.013 622.057 112.21 622.295 113.42 622.295C114.629 622.295 115.826 622.057 116.943 621.594C118.061 621.131 119.076 620.452 119.93 619.597L172.192 567.335C173.048 566.48 173.727 565.465 174.19 564.348C174.653 563.231 174.891 562.033 174.891 560.824C174.891 559.615 174.653 558.417 174.19 557.3C173.727 556.183 173.048 555.168 172.192 554.313L157.163 539.284C156.581 538.705 156.119 538.017 155.804 537.26C155.489 536.502 155.326 535.69 155.326 534.869C155.326 534.049 155.489 533.237 155.804 532.479C156.119 531.722 156.581 531.034 157.163 530.455L172.391 515.249C173.278 514.4 173.987 513.382 174.476 512.254C174.965 511.127 175.223 509.914 175.237 508.686C175.25 507.457 175.018 506.239 174.554 505.101C174.09 503.964 173.404 502.93 172.535 502.061C171.667 501.193 170.633 500.506 169.496 500.042C168.358 499.579 167.139 499.347 165.911 499.36C164.683 499.373 163.469 499.632 162.342 500.121C161.215 500.609 160.197 501.318 159.348 502.206L133.239 528.337C132.383 529.191 131.704 530.206 131.241 531.323C130.778 532.441 130.54 533.638 130.54 534.847C130.54 536.057 130.778 537.254 131.241 538.371C131.704 539.488 132.383 540.503 133.239 541.358L148.268 556.388C149.438 557.559 150.095 559.147 150.095 560.802C150.095 562.457 149.438 564.045 148.268 565.216L117.812 595.629C117.235 596.213 116.547 596.677 115.79 596.994C115.032 597.311 114.219 597.474 113.397 597.474C112.576 597.474 111.763 597.311 111.005 596.994C110.248 596.677 109.56 596.213 108.983 595.629L52.7045 539.35C52.1227 538.771 51.6609 538.084 51.3458 537.326C51.0307 536.569 50.8684 535.756 50.8684 534.936C50.8684 534.115 51.0307 533.303 51.3458 532.545C51.6609 531.788 52.1227 531.1 52.7045 530.522L94.0861 489.25C95.0077 488.409 95.7492 487.39 96.2656 486.255C96.7821 485.119 97.0628 483.89 97.0908 482.643C97.1188 481.395 96.8935 480.155 96.4285 478.998C95.9635 477.84 95.2685 476.788 94.3855 475.907C93.5026 475.025 92.45 474.332 91.2914 473.869C90.1329 473.406 88.8924 473.183 87.6451 473.213C86.3979 473.243 85.1697 473.526 84.0348 474.044C82.9 474.563 81.882 475.306 81.0426 476.229L39.7052 517.566C39.1268 518.148 38.439 518.61 37.6815 518.925C36.924 519.24 36.1116 519.403 35.2911 519.403C34.4707 519.403 33.6583 519.24 32.9008 518.925C32.1433 518.61 31.4555 518.148 30.8771 517.566L15.6928 502.382C13.9357 500.705 11.6001 499.77 9.17112 499.77C6.74215 499.77 4.40656 500.705 2.64942 502.382C0.939794 504.127 -0.0122935 506.475 9.68997e-05 508.918C0.0125025 511.36 0.988394 513.699 2.71563 515.426Z" fill="#C7D07F"/>
<path d="M159.568 620.17C161.325 621.847 163.661 622.783 166.09 622.783C168.519 622.783 170.855 621.847 172.612 620.17L239.749 553.011C240.92 551.841 242.508 551.184 244.163 551.184C245.819 551.184 247.406 551.841 248.577 553.011L279.078 583.534C279.668 584.107 280.137 584.794 280.457 585.552C280.778 586.31 280.943 587.125 280.943 587.948C280.943 588.771 280.778 589.585 280.457 590.343C280.137 591.102 279.668 591.788 279.078 592.362L274.973 596.489C273.791 597.638 272.208 598.28 270.559 598.28C268.911 598.28 267.327 597.638 266.145 596.489L250.806 581.172C249.951 580.317 248.936 579.639 247.819 579.176C246.702 578.713 245.505 578.475 244.296 578.475C243.087 578.475 241.889 578.713 240.772 579.176C239.655 579.639 238.64 580.317 237.785 581.172C236.93 582.027 236.252 583.042 235.789 584.159C235.326 585.276 235.088 586.474 235.088 587.683C235.088 588.892 235.326 590.089 235.789 591.206C236.252 592.323 236.93 593.339 237.785 594.194L253.234 609.532C253.819 610.109 254.283 610.796 254.6 611.554C254.916 612.312 255.079 613.125 255.079 613.946C255.079 614.768 254.916 615.581 254.6 616.338C254.283 617.096 253.819 617.783 253.234 618.36L212.007 659.587C210.278 661.317 209.307 663.663 209.307 666.109C209.307 668.555 210.278 670.901 212.007 672.631L238.27 698.828C239.12 699.716 240.138 700.424 241.265 700.913C242.392 701.402 243.606 701.66 244.834 701.674C246.062 701.687 247.281 701.455 248.419 700.991C249.556 700.527 250.59 699.841 251.458 698.972C252.327 698.104 253.013 697.07 253.477 695.933C253.941 694.795 254.173 693.577 254.16 692.348C254.146 691.12 253.888 689.906 253.399 688.779C252.91 687.652 252.201 686.634 251.314 685.785L235.865 670.468C235.28 669.891 234.816 669.204 234.499 668.446C234.183 667.688 234.019 666.875 234.019 666.054C234.019 665.233 234.183 664.42 234.499 663.662C234.816 662.904 235.28 662.217 235.865 661.64L292.078 605.339C293.262 604.195 294.845 603.556 296.492 603.556C298.138 603.556 299.721 604.195 300.906 605.339L330.899 635.354C331.489 635.928 331.958 636.614 332.278 637.373C332.598 638.131 332.763 638.945 332.763 639.768C332.763 640.591 332.598 641.406 332.278 642.164C331.958 642.922 331.489 643.609 330.899 644.182L315.693 659.411C314.838 660.266 314.159 661.281 313.697 662.398C313.234 663.515 312.996 664.712 312.996 665.922C312.996 667.131 313.234 668.328 313.697 669.445C314.159 670.562 314.838 671.577 315.693 672.432C316.548 673.287 317.563 673.965 318.68 674.428C319.797 674.891 320.994 675.129 322.203 675.129C323.413 675.129 324.61 674.891 325.727 674.428C326.844 673.965 327.859 673.287 328.714 672.432L354.845 646.389C356.569 644.657 357.536 642.312 357.536 639.868C357.536 637.424 356.569 635.079 354.845 633.346L250.652 529.175C249.8 528.314 248.786 527.631 247.669 527.164C246.551 526.698 245.352 526.458 244.141 526.458C242.93 526.458 241.731 526.698 240.614 527.164C239.496 527.631 238.482 528.314 237.631 529.175L159.568 607.237C157.867 608.959 156.914 611.283 156.914 613.704C156.914 616.124 157.867 618.448 159.568 620.17Z" fill="#C7D07F"/>
<path d="M133.459 646.147L237.63 750.318C239.36 752.047 241.706 753.019 244.152 753.019C246.598 753.019 248.944 752.047 250.674 750.318L302.936 698.078C304.654 696.342 305.618 693.999 305.618 691.556C305.618 689.114 304.654 686.77 302.936 685.035L287.906 670.005C287.316 669.431 286.847 668.745 286.527 667.986C286.207 667.228 286.042 666.414 286.042 665.591C286.042 664.768 286.207 663.953 286.527 663.195C286.847 662.437 287.316 661.751 287.906 661.177L303.113 645.948C304.036 645.109 304.779 644.091 305.297 642.956C305.816 641.821 306.098 640.593 306.129 639.346C306.159 638.098 305.935 636.858 305.472 635.699C305.009 634.541 304.316 633.488 303.435 632.605C302.553 631.722 301.502 631.027 300.344 630.562C299.186 630.097 297.946 629.872 296.699 629.9C295.452 629.928 294.223 630.209 293.087 630.725C291.951 631.242 290.932 631.983 290.091 632.905L263.96 659.036C262.231 660.766 261.26 663.112 261.26 665.558C261.26 668.004 262.231 670.349 263.96 672.079L278.99 687.087C279.574 687.664 280.039 688.351 280.355 689.109C280.672 689.867 280.835 690.68 280.835 691.501C280.835 692.322 280.672 693.135 280.355 693.893C280.039 694.651 279.574 695.338 278.99 695.915L248.533 726.372C247.955 726.954 247.267 727.416 246.509 727.731C245.752 728.046 244.94 728.208 244.119 728.208C243.299 728.208 242.486 728.046 241.729 727.731C240.971 727.416 240.283 726.954 239.705 726.372L183.404 670.071C182.82 669.494 182.355 668.807 182.039 668.049C181.722 667.291 181.559 666.478 181.559 665.657C181.559 664.836 181.722 664.023 182.039 663.265C182.355 662.507 182.82 661.82 183.404 661.243L224.808 619.906C226.534 618.179 227.505 615.837 227.505 613.395C227.505 610.953 226.534 608.611 224.808 606.884C223.081 605.157 220.739 604.187 218.297 604.187C215.855 604.187 213.513 605.157 211.786 606.884L170.449 648.222C169.872 648.806 169.185 649.27 168.427 649.587C167.669 649.904 166.856 650.067 166.035 650.067C165.214 650.067 164.4 649.904 163.643 649.587C162.885 649.27 162.198 648.806 161.621 648.222L146.437 633.037C144.686 631.357 142.353 630.418 139.926 630.418C137.499 630.418 135.166 631.357 133.415 633.037C132.552 633.898 131.868 634.921 131.402 636.048C130.937 637.175 130.699 638.382 130.703 639.601C130.708 640.82 130.953 642.026 131.426 643.15C131.899 644.273 132.59 645.292 133.459 646.147Z" fill="#C7D07F"/>
<path d="M290.289 750.914C292.049 752.586 294.384 753.518 296.811 753.518C299.239 753.518 301.573 752.586 303.333 750.914L370.492 683.755C371.068 683.167 371.755 682.701 372.513 682.382C373.27 682.064 374.084 681.9 374.906 681.9C375.729 681.9 376.542 682.064 377.3 682.382C378.058 682.701 378.745 683.167 379.32 683.755L409.844 714.256C410.425 714.834 410.887 715.522 411.202 716.279C411.517 717.037 411.68 717.849 411.68 718.67C411.68 719.49 411.517 720.302 411.202 721.06C410.887 721.818 410.425 722.505 409.844 723.084L405.606 727.167C404.421 728.31 402.839 728.949 401.192 728.949C399.545 728.949 397.963 728.31 396.778 727.167L381.329 711.828C379.576 710.229 377.275 709.366 374.904 709.42C372.532 709.473 370.272 710.438 368.593 712.114C366.914 713.79 365.945 716.048 365.888 718.42C365.831 720.792 366.689 723.094 368.285 724.849L383.624 740.188C384.206 740.766 384.668 741.454 384.983 742.212C385.298 742.969 385.46 743.782 385.46 744.602C385.46 745.423 385.298 746.235 384.983 746.992C384.668 747.75 384.206 748.438 383.624 749.016L342.397 790.243C341.542 791.098 340.863 792.113 340.4 793.23C339.937 794.347 339.699 795.545 339.699 796.754C339.699 797.963 339.937 799.161 340.4 800.278C340.863 801.395 341.542 802.41 342.397 803.265L368.683 829.462C370.409 831.189 372.751 832.159 375.193 832.159C377.635 832.159 379.977 831.189 381.704 829.462C383.431 827.735 384.401 825.393 384.401 822.951C384.401 820.509 383.431 818.167 381.704 816.44L366.255 801.102C365.673 800.523 365.211 799.836 364.896 799.078C364.581 798.32 364.419 797.508 364.419 796.688C364.419 795.867 364.581 795.055 364.896 794.297C365.211 793.54 365.673 792.852 366.255 792.274L422.468 736.039C423.655 734.9 425.237 734.265 426.882 734.265C428.527 734.265 430.108 734.9 431.296 736.039L461.355 766.098C461.937 766.677 462.399 767.365 462.714 768.122C463.029 768.88 463.191 769.692 463.191 770.512C463.191 771.333 463.029 772.145 462.714 772.903C462.399 773.66 461.937 774.348 461.355 774.927L446.127 790.133C444.409 791.901 443.464 794.278 443.499 796.743C443.534 799.208 444.547 801.558 446.315 803.276C448.082 804.994 450.46 805.939 452.925 805.904C455.39 805.869 457.739 804.856 459.457 803.088L485.566 776.957C487.289 775.228 488.256 772.887 488.256 770.446C488.256 768.006 487.289 765.665 485.566 763.936L381.329 659.808C379.596 658.085 377.251 657.117 374.807 657.117C372.363 657.117 370.018 658.085 368.285 659.808L290.223 737.871C288.503 739.609 287.543 741.96 287.556 744.406C287.568 746.852 288.552 749.193 290.289 750.914Z" fill="#C7D07F"/>
<path d="M264.181 776.869L368.374 881.062C370.106 882.779 372.446 883.742 374.885 883.742C377.323 883.742 379.664 882.779 381.395 881.062L433.658 828.8C435.387 827.07 436.358 824.724 436.358 822.278C436.358 819.832 435.387 817.486 433.658 815.756L418.628 800.726C418.043 800.149 417.579 799.462 417.262 798.704C416.946 797.947 416.782 797.134 416.782 796.312C416.782 795.491 416.946 794.678 417.262 793.92C417.579 793.163 418.043 792.475 418.628 791.898L433.856 776.67C435.452 774.915 436.311 772.612 436.254 770.241C436.196 767.869 435.228 765.61 433.549 763.934C431.87 762.258 429.61 761.293 427.238 761.24C424.866 761.187 422.565 762.049 420.813 763.649L394.571 789.846C392.853 791.581 391.889 793.925 391.889 796.368C391.889 798.81 392.853 801.154 394.571 802.889L409.601 817.919C410.188 818.494 410.655 819.181 410.973 819.939C411.292 820.697 411.456 821.511 411.456 822.333C411.456 823.155 411.292 823.969 410.973 824.727C410.655 825.485 410.188 826.172 409.601 826.747L379.166 857.204C378.589 857.788 377.902 858.253 377.144 858.569C376.387 858.886 375.574 859.049 374.752 859.049C373.931 859.049 373.118 858.886 372.36 858.569C371.602 858.253 370.915 857.788 370.338 857.204L314.214 800.881C313.624 800.307 313.155 799.621 312.835 798.863C312.514 798.105 312.349 797.29 312.349 796.467C312.349 795.644 312.514 794.829 312.835 794.071C313.155 793.313 313.624 792.627 314.214 792.053L355.551 750.715C357.219 748.973 358.138 746.647 358.112 744.235C358.085 741.824 357.116 739.518 355.41 737.813C353.705 736.108 351.399 735.138 348.988 735.111C346.576 735.085 344.25 736.004 342.508 737.672L301.17 779.009C300.595 779.597 299.908 780.063 299.15 780.382C298.392 780.7 297.578 780.864 296.756 780.864C295.934 780.864 295.12 780.7 294.362 780.382C293.604 780.063 292.918 779.597 292.342 779.009L277.158 763.847C275.401 762.17 273.065 761.234 270.636 761.234C268.207 761.234 265.872 762.17 264.115 763.847C263.263 764.706 262.59 765.725 262.132 766.844C261.675 767.964 261.443 769.162 261.449 770.372C261.455 771.581 261.7 772.777 262.168 773.892C262.637 775.007 263.321 776.018 264.181 776.869Z" fill="#C7D07F"/>
<path d="M29.4424 227.388C31.2021 229.06 33.5368 229.992 35.9642 229.992C38.3916 229.992 40.7262 229.06 42.4859 227.388L109.645 160.228C110.221 159.641 110.908 159.175 111.666 158.856C112.423 158.538 113.237 158.374 114.059 158.374C114.882 158.374 115.695 158.538 116.453 158.856C117.211 159.175 117.898 159.641 118.473 160.228L148.93 190.729C149.512 191.308 149.974 191.996 150.289 192.753C150.604 193.511 150.766 194.323 150.766 195.144C150.766 195.964 150.604 196.776 150.289 197.534C149.974 198.291 149.512 198.979 148.93 199.558L144.803 203.685C143.616 204.823 142.034 205.459 140.389 205.459C138.744 205.459 137.163 204.823 135.975 203.685L120.658 188.346C118.906 186.747 116.605 185.884 114.233 185.938C111.861 185.991 109.601 186.956 107.922 188.632C106.243 190.308 105.275 192.566 105.217 194.938C105.16 197.31 106.019 199.612 107.615 201.367L122.954 216.816C123.536 217.395 123.997 218.083 124.312 218.84C124.628 219.598 124.79 220.41 124.79 221.23C124.79 222.051 124.628 222.863 124.312 223.621C123.997 224.378 123.536 225.066 122.954 225.644L81.7267 266.872C80.8712 267.726 80.1925 268.741 79.7295 269.858C79.2664 270.975 79.0281 272.173 79.0281 273.382C79.0281 274.592 79.2664 275.789 79.7295 276.906C80.1925 278.023 80.8712 279.038 81.7267 279.893L108.012 306.09C108.867 306.945 109.882 307.623 110.999 308.086C112.116 308.549 113.314 308.787 114.523 308.787C115.732 308.787 116.929 308.549 118.047 308.086C119.164 307.623 120.179 306.945 121.034 306.09C121.889 305.235 122.567 304.22 123.03 303.103C123.492 301.986 123.73 300.789 123.73 299.579C123.73 298.37 123.492 297.173 123.03 296.056C122.567 294.939 121.889 293.924 121.034 293.069L105.695 277.73C105.113 277.152 104.651 276.464 104.336 275.706C104.021 274.949 103.859 274.136 103.859 273.316C103.859 272.496 104.021 271.683 104.336 270.926C104.651 270.168 105.113 269.48 105.695 268.902L161.952 212.535C163.139 211.396 164.721 210.761 166.366 210.761C168.011 210.761 169.592 211.396 170.78 212.535L200.773 242.506C201.36 243.081 201.827 243.768 202.145 244.526C202.464 245.284 202.628 246.098 202.628 246.92C202.628 247.742 202.464 248.556 202.145 249.314C201.827 250.072 201.36 250.759 200.773 251.334L185.567 266.54C183.968 268.293 183.105 270.594 183.158 272.966C183.212 275.337 184.177 277.598 185.853 279.277C187.529 280.955 189.787 281.924 192.159 281.981C194.53 282.039 196.833 281.18 198.588 279.584L224.631 253.541C226.353 251.812 227.32 249.471 227.32 247.03C227.32 244.59 226.353 242.249 224.631 240.52L120.46 136.327C118.727 134.603 116.382 133.635 113.938 133.635C111.494 133.635 109.149 134.603 107.416 136.327L29.3541 214.389C27.6502 216.128 26.7032 218.471 26.7197 220.907C26.7362 223.342 27.715 225.672 29.4424 227.388Z" fill="#C7D07F"/>
<path d="M3.33364 253.342L107.505 357.536C109.24 359.254 111.584 360.218 114.027 360.218C116.469 360.218 118.813 359.254 120.548 357.536L172.81 305.273C174.539 303.544 175.511 301.198 175.511 298.752C175.511 296.306 174.539 293.96 172.81 292.23L157.781 277.2C157.196 276.623 156.732 275.936 156.415 275.178C156.098 274.421 155.935 273.608 155.935 272.786C155.935 271.965 156.098 271.152 156.415 270.394C156.732 269.636 157.196 268.949 157.781 268.372L173.009 253.144C174.605 251.389 175.464 249.086 175.406 246.714C175.349 244.343 174.38 242.084 172.702 240.408C171.023 238.732 168.763 237.767 166.391 237.714C164.019 237.661 161.718 238.523 159.966 240.122L133.834 266.231C132.116 267.967 131.152 270.311 131.152 272.753C131.152 275.195 132.116 277.539 133.834 279.275L148.864 294.305C149.452 294.88 149.918 295.567 150.237 296.325C150.555 297.083 150.719 297.897 150.719 298.719C150.719 299.541 150.555 300.355 150.237 301.113C149.918 301.871 149.452 302.557 148.864 303.133L118.407 333.589C117.832 334.177 117.145 334.643 116.387 334.962C115.629 335.28 114.816 335.444 113.993 335.444C113.171 335.444 112.357 335.28 111.599 334.962C110.842 334.643 110.155 334.177 109.579 333.589L53.2784 277.289C52.6938 276.712 52.2297 276.024 51.9129 275.267C51.5961 274.509 51.433 273.696 51.433 272.875C51.433 272.053 51.5961 271.24 51.9129 270.482C52.2297 269.725 52.6938 269.037 53.2784 268.46L94.6379 227.123C96.3056 225.381 97.2247 223.055 97.1983 220.643C97.1719 218.231 96.2022 215.926 94.4968 214.221C92.7914 212.515 90.486 211.546 88.0743 211.519C85.6627 211.493 83.3367 212.412 81.5944 214.08L40.257 255.417C39.6801 256.002 38.9928 256.466 38.2351 256.782C37.4774 257.099 36.6642 257.262 35.8429 257.262C35.0216 257.262 34.2086 257.099 33.4508 256.782C32.6931 256.466 32.0058 256.002 31.4289 255.417L16.2667 240.255C14.5096 238.578 12.174 237.642 9.74501 237.642C7.31604 237.642 4.98038 238.578 3.22324 240.255C2.36495 241.118 1.68639 242.143 1.2269 243.27C0.767415 244.397 0.536108 245.604 0.546377 246.822C0.556631 248.039 0.808294 249.242 1.28672 250.361C1.76514 251.481 2.46091 252.494 3.33364 253.342Z" fill="#C7D07F"/>
<path d="M160.186 358.109C161.937 359.79 164.27 360.728 166.697 360.728C169.124 360.728 171.457 359.79 173.208 358.109L240.367 290.95C240.945 290.368 241.633 289.906 242.391 289.591C243.148 289.276 243.961 289.114 244.781 289.114C245.602 289.114 246.414 289.276 247.171 289.591C247.929 289.906 248.617 290.368 249.195 290.95L279.718 321.473C280.303 322.05 280.767 322.737 281.084 323.495C281.4 324.252 281.563 325.065 281.563 325.887C281.563 326.708 281.4 327.521 281.084 328.279C280.767 329.037 280.303 329.724 279.718 330.301L275.591 334.428C274.406 335.571 272.824 336.21 271.177 336.21C269.53 336.21 267.948 335.571 266.763 334.428L251.424 319.089C249.682 317.421 247.356 316.502 244.944 316.529C242.533 316.555 240.227 317.525 238.522 319.23C236.816 320.936 235.847 323.241 235.82 325.653C235.794 328.064 236.713 330.39 238.381 332.133L253.719 347.471C254.309 348.045 254.778 348.731 255.099 349.49C255.419 350.248 255.584 351.062 255.584 351.885C255.584 352.708 255.419 353.523 255.099 354.281C254.778 355.039 254.309 355.726 253.719 356.299L212.492 397.526C210.763 399.256 209.792 401.602 209.792 404.048C209.792 406.494 210.763 408.84 212.492 410.57L238.778 436.723C240.533 438.319 242.836 439.178 245.207 439.12C247.579 439.063 249.837 438.095 251.514 436.416C253.19 434.737 254.154 432.477 254.208 430.105C254.261 427.733 253.398 425.432 251.799 423.68L236.483 408.341C235.895 407.765 235.429 407.079 235.11 406.321C234.792 405.563 234.628 404.749 234.628 403.927C234.628 403.105 234.792 402.291 235.11 401.533C235.429 400.775 235.895 400.088 236.483 399.513L292.695 343.3C293.88 342.157 295.463 341.517 297.109 341.517C298.756 341.517 300.339 342.157 301.523 343.3L331.583 373.36C332.168 373.937 332.632 374.624 332.948 375.382C333.265 376.139 333.428 376.952 333.428 377.774C333.428 378.595 333.265 379.408 332.948 380.166C332.632 380.924 332.168 381.611 331.583 382.188L316.355 397.416C314.632 399.145 313.665 401.486 313.665 403.927C313.665 406.367 314.632 408.708 316.355 410.437C318.085 412.167 320.43 413.138 322.876 413.138C325.322 413.138 327.668 412.167 329.398 410.437L355.507 384.329C356.369 383.475 357.052 382.459 357.519 381.34C357.986 380.22 358.226 379.02 358.226 377.807C358.226 376.594 357.986 375.393 357.519 374.274C357.052 373.155 356.369 372.139 355.507 371.285L251.336 267.114C250.482 266.252 249.466 265.569 248.347 265.102C247.228 264.635 246.027 264.395 244.814 264.395C243.601 264.395 242.401 264.635 241.281 265.102C240.162 265.569 239.146 266.252 238.292 267.114L160.252 345.154C158.541 346.872 157.575 349.194 157.563 351.618C157.55 354.042 158.493 356.374 160.186 358.109Z" fill="#C7D07F"/>
<path d="M134.143 384.086L238.336 488.257C239.191 489.113 240.206 489.791 241.323 490.254C242.44 490.717 243.638 490.956 244.847 490.956C246.056 490.956 247.254 490.717 248.371 490.254C249.488 489.791 250.503 489.113 251.358 488.257L303.62 435.995C304.475 435.14 305.154 434.125 305.617 433.008C306.08 431.891 306.318 430.694 306.318 429.484C306.318 428.275 306.08 427.078 305.617 425.96C305.154 424.843 304.475 423.828 303.62 422.974L288.59 407.944C288.008 407.365 287.546 406.678 287.231 405.92C286.916 405.163 286.754 404.35 286.754 403.53C286.754 402.709 286.916 401.897 287.231 401.139C287.546 400.382 288.008 399.694 288.59 399.116L303.819 383.909C305.486 382.167 306.405 379.841 306.379 377.429C306.353 375.018 305.383 372.712 303.677 371.007C301.972 369.302 299.667 368.332 297.255 368.306C294.843 368.279 292.517 369.198 290.775 370.866L264.578 396.997C263.722 397.852 263.044 398.867 262.581 399.984C262.118 401.101 261.879 402.298 261.879 403.508C261.879 404.717 262.118 405.914 262.581 407.032C263.044 408.149 263.722 409.164 264.578 410.018L279.608 425.048C280.777 426.219 281.434 427.807 281.434 429.462C281.434 431.117 280.777 432.705 279.608 433.876L249.151 464.311C248.574 464.896 247.887 465.36 247.129 465.676C246.371 465.993 245.558 466.156 244.737 466.156C243.915 466.156 243.102 465.993 242.345 465.676C241.587 465.36 240.9 464.896 240.323 464.311L184.044 408.032C183.456 407.457 182.99 406.77 182.671 406.012C182.353 405.254 182.189 404.44 182.189 403.618C182.189 402.796 182.353 401.982 182.671 401.224C182.99 400.466 183.456 399.779 184.044 399.204L225.381 357.867C226.303 357.026 227.044 356.006 227.561 354.871C228.077 353.735 228.358 352.506 228.386 351.259C228.414 350.012 228.189 348.772 227.724 347.614C227.259 346.456 226.564 345.405 225.681 344.523C224.798 343.642 223.745 342.948 222.587 342.485C221.428 342.022 220.188 341.799 218.94 341.829C217.693 341.859 216.465 342.142 215.33 342.661C214.195 343.179 213.177 343.922 212.338 344.845L171 386.183C170.422 386.765 169.734 387.226 168.977 387.541C168.219 387.857 167.407 388.019 166.586 388.019C165.766 388.019 164.953 387.857 164.196 387.541C163.438 387.226 162.751 386.765 162.172 386.183L146.988 370.998C145.231 369.321 142.895 368.386 140.466 368.386C138.037 368.386 135.702 369.321 133.944 370.998C132.239 372.762 131.302 375.13 131.339 377.583C131.376 380.037 132.385 382.375 134.143 384.086Z" fill="#C7D07F"/>
<path d="M290.842 488.831C292.599 490.508 294.934 491.443 297.363 491.443C299.792 491.443 302.128 490.508 303.885 488.831L371.023 421.671C372.194 420.501 373.781 419.844 375.437 419.844C377.092 419.844 378.679 420.501 379.851 421.671L410.374 452.172C410.961 452.747 411.427 453.434 411.746 454.192C412.064 454.95 412.228 455.764 412.228 456.586C412.228 457.408 412.064 458.222 411.746 458.98C411.427 459.738 410.961 460.425 410.374 461L406.269 465.105C405.086 466.254 403.503 466.896 401.855 466.896C400.206 466.896 398.623 466.254 397.44 465.105L382.102 449.789C380.375 448.062 378.033 447.092 375.591 447.092C373.149 447.092 370.807 448.062 369.08 449.789C367.354 451.515 366.384 453.857 366.384 456.299C366.384 458.741 367.354 461.083 369.08 462.81L384.419 478.149C385.004 478.726 385.468 479.413 385.785 480.171C386.101 480.928 386.264 481.741 386.264 482.563C386.264 483.384 386.101 484.197 385.785 484.955C385.468 485.713 385.004 486.4 384.419 486.977L343.192 528.204C341.463 529.934 340.492 532.28 340.492 534.726C340.492 537.171 341.463 539.517 343.192 541.247L369.456 567.445C370.305 568.332 371.323 569.041 372.45 569.529C373.577 570.018 374.791 570.277 376.019 570.29C377.247 570.304 378.466 570.072 379.604 569.608C380.741 569.144 381.775 568.457 382.643 567.589C383.512 566.72 384.198 565.687 384.662 564.549C385.126 563.412 385.358 562.193 385.345 560.965C385.331 559.736 385.073 558.523 384.584 557.396C384.095 556.269 383.386 555.251 382.499 554.401L367.05 539.084C366.465 538.508 366.001 537.82 365.684 537.062C365.368 536.305 365.204 535.492 365.204 534.67C365.204 533.849 365.368 533.036 365.684 532.278C366.001 531.52 366.465 530.833 367.05 530.256L423.263 474.044C424.447 472.9 426.03 472.261 427.677 472.261C429.323 472.261 430.906 472.9 432.091 474.044L462.15 504.103C462.735 504.68 463.199 505.367 463.516 506.125C463.832 506.883 463.996 507.696 463.996 508.517C463.996 509.338 463.832 510.152 463.516 510.909C463.199 511.667 462.735 512.354 462.15 512.931L446.944 528.16C446.021 528.999 445.278 530.017 444.759 531.152C444.241 532.287 443.958 533.515 443.928 534.762C443.898 536.01 444.121 537.25 444.584 538.409C445.047 539.567 445.74 540.62 446.622 541.503C447.503 542.386 448.555 543.081 449.712 543.546C450.87 544.011 452.11 544.236 453.358 544.208C454.605 544.18 455.834 543.899 456.969 543.383C458.105 542.866 459.124 542.125 459.965 541.203L486.096 515.072C487.82 513.339 488.788 510.995 488.788 508.55C488.788 506.106 487.82 503.761 486.096 502.029L381.903 397.857C380.174 396.135 377.833 395.168 375.392 395.168C372.952 395.168 370.611 396.135 368.882 397.857L290.842 475.809C289.986 476.664 289.307 477.679 288.844 478.796C288.381 479.913 288.143 481.111 288.143 482.32C288.143 483.529 288.381 484.727 288.844 485.844C289.307 486.961 289.986 487.976 290.842 488.831Z" fill="#C7D07F"/>
<path d="M264.799 514.808L368.97 618.979C370.7 620.708 373.046 621.679 375.492 621.679C377.938 621.679 380.283 620.708 382.013 618.979L434.298 566.739C436.016 565.003 436.98 562.659 436.98 560.217C436.98 557.774 436.016 555.431 434.298 553.695L419.268 538.665C418.678 538.092 418.209 537.405 417.889 536.647C417.569 535.889 417.404 535.074 417.404 534.251C417.404 533.428 417.569 532.614 417.889 531.856C418.209 531.097 418.678 530.411 419.268 529.837L434.474 514.609C435.397 513.77 436.14 512.752 436.659 511.617C437.177 510.482 437.46 509.254 437.49 508.006C437.52 506.759 437.297 505.519 436.834 504.36C436.371 503.202 435.678 502.149 434.796 501.266C433.915 500.383 432.863 499.688 431.706 499.223C430.548 498.758 429.308 498.533 428.06 498.561C426.813 498.589 425.584 498.87 424.449 499.386C423.313 499.902 422.294 500.644 421.453 501.565L395.322 527.697C393.593 529.427 392.621 531.772 392.621 534.218C392.621 536.664 393.593 539.01 395.322 540.74L410.329 555.902C410.917 556.478 411.383 557.164 411.702 557.922C412.02 558.68 412.184 559.494 412.184 560.316C412.184 561.138 412.02 561.952 411.702 562.71C411.383 563.468 410.917 564.155 410.329 564.73L379.873 595.187C379.294 595.769 378.606 596.231 377.849 596.546C377.091 596.861 376.279 597.023 375.459 597.023C374.638 597.023 373.826 596.861 373.068 596.546C372.311 596.231 371.623 595.769 371.045 595.187L314.744 538.886C314.159 538.309 313.695 537.622 313.378 536.864C313.061 536.106 312.898 535.293 312.898 534.472C312.898 533.651 313.061 532.838 313.378 532.08C313.695 531.322 314.159 530.635 314.744 530.058L356.081 488.721C356.942 487.867 357.626 486.851 358.093 485.732C358.56 484.612 358.8 483.412 358.8 482.199C358.8 480.986 358.56 479.785 358.093 478.666C357.626 477.547 356.942 476.531 356.081 475.677C354.352 473.955 352.011 472.988 349.57 472.988C347.13 472.988 344.789 473.955 343.06 475.677L301.877 516.948C301.3 517.533 300.612 517.997 299.855 518.314C299.097 518.631 298.284 518.794 297.463 518.794C296.641 518.794 295.828 518.631 295.07 518.314C294.313 517.997 293.625 517.533 293.049 516.948L277.864 501.764C276.108 500.094 273.777 499.162 271.354 499.162C268.93 499.162 266.599 500.094 264.843 501.764C263.108 503.488 262.129 505.831 262.12 508.277C262.112 510.723 263.076 513.072 264.799 514.808Z" fill="#C7D07F"/>
<path d="M30.0608 -34.6954C31.8116 -33.0148 34.1446 -32.0764 36.5715 -32.0764C38.9984 -32.0764 41.3313 -33.0148 43.0821 -34.6954L110.242 -101.789C111.413 -102.959 113 -103.616 114.656 -103.616C116.311 -103.616 117.899 -102.959 119.07 -101.789L149.593 -71.332C150.18 -70.7566 150.647 -70.0699 150.965 -69.312C151.283 -68.554 151.448 -67.7401 151.448 -66.918C151.448 -66.0958 151.283 -65.2819 150.965 -64.524C150.647 -63.7661 150.18 -63.0793 149.593 -62.5039L145.466 -58.3989C144.286 -57.245 142.702 -56.5989 141.052 -56.5989C139.402 -56.5989 137.817 -57.245 136.638 -58.3989L121.299 -73.7156C119.572 -75.4424 117.23 -76.4124 114.788 -76.4124C112.346 -76.4124 110.004 -75.4424 108.277 -73.7156C106.551 -71.9889 105.581 -69.6469 105.581 -67.2049C105.581 -64.7629 106.551 -62.4209 108.277 -60.6942L123.594 -45.3554C124.184 -44.7816 124.653 -44.0954 124.973 -43.3372C125.293 -42.5791 125.458 -41.7643 125.458 -40.9414C125.458 -40.1184 125.293 -39.3038 124.973 -38.5456C124.653 -37.7875 124.184 -37.1011 123.594 -36.5273L82.3891 4.69973C80.66 6.42969 79.6887 8.77555 79.6887 11.2215C79.6887 13.6674 80.66 16.0132 82.3891 17.7431L108.653 43.8743C109.502 44.7617 110.52 45.4706 111.647 45.9592C112.774 46.4479 113.988 46.7065 115.216 46.7199C116.444 46.7333 117.663 46.5013 118.801 46.0374C119.938 45.5735 120.972 44.887 121.84 44.0184C122.709 43.1497 123.395 42.1164 123.859 40.9789C124.323 39.8414 124.555 38.6226 124.542 37.3942C124.528 36.1659 124.27 34.9526 123.781 33.8255C123.292 32.6984 122.583 31.6803 121.696 30.8309L106.357 15.5142C105.773 14.9373 105.309 14.25 104.992 13.4922C104.675 12.7345 104.512 11.9214 104.512 11.1001C104.512 10.2788 104.675 9.46562 104.992 8.70789C105.309 7.95016 105.773 7.263 106.357 6.68609L162.57 -49.5267C163.755 -50.6702 165.337 -51.3092 166.984 -51.3092C168.631 -51.3092 170.213 -50.6702 171.398 -49.5267L201.391 -19.4671C201.976 -18.8902 202.44 -18.2029 202.757 -17.4452C203.074 -16.6875 203.237 -15.8744 203.237 -15.0531C203.237 -14.2318 203.074 -13.4187 202.757 -12.661C202.44 -11.9033 201.976 -11.216 201.391 -10.6391L186.163 4.58939C185.241 5.43037 184.5 6.44951 183.983 7.58525C183.467 8.72099 183.186 9.94963 183.158 11.197C183.13 12.4443 183.356 13.6845 183.821 14.8422C184.286 16 184.981 17.0513 185.864 17.9328C186.746 18.8143 187.799 19.5076 188.958 19.9706C190.116 20.4336 191.357 20.6567 192.604 20.6266C193.851 20.5965 195.079 20.3137 196.214 19.7954C197.349 19.277 198.367 18.5338 199.207 17.6107L225.338 -8.4982C227.061 -10.231 228.029 -12.5758 228.029 -15.02C228.029 -17.4641 227.061 -19.8089 225.338 -21.5417L121.144 -125.713C119.415 -127.435 117.074 -128.402 114.634 -128.402C112.193 -128.402 109.852 -127.435 108.123 -125.713L30.0608 -47.6506C28.3531 -45.9272 27.3951 -43.5992 27.3951 -41.173C27.3951 -38.7469 28.3531 -36.4189 30.0608 -34.6954Z" fill="#C7D07F"/>
<path d="M3.92956 -8.71902L108.101 95.4522C109.831 97.1813 112.177 98.1526 114.622 98.1526C117.068 98.1526 119.414 97.1813 121.144 95.4522L173.406 43.2121C175.135 41.4822 176.107 39.1363 176.107 36.6903C176.107 34.2444 175.135 31.8985 173.406 30.1686L158.421 15.183C157.831 14.6092 157.362 13.9228 157.042 13.1647C156.721 12.4065 156.556 11.592 156.556 10.769C156.556 9.94596 156.721 9.13136 157.042 8.37322C157.362 7.61507 157.831 6.92874 158.421 6.35492L173.627 -8.87354C174.55 -9.71295 175.293 -10.7308 175.812 -11.8656C176.33 -13.0005 176.613 -14.2287 176.643 -15.476C176.673 -16.7233 176.45 -17.9638 175.987 -19.1223C175.524 -20.2809 174.831 -21.3334 173.949 -22.2164C173.068 -23.0994 172.016 -23.7944 170.858 -24.2593C169.701 -24.7243 168.461 -24.9497 167.213 -24.9217C165.966 -24.8937 164.737 -24.6129 163.602 -24.0965C162.466 -23.58 161.447 -22.8386 160.606 -21.9169L134.453 4.14791C132.723 5.87786 131.752 8.22374 131.752 10.6697C131.752 13.1156 132.723 15.4614 134.453 17.1913L149.482 32.1991C150.652 33.3703 151.309 34.9579 151.309 36.6132C151.309 38.2685 150.652 39.8561 149.482 41.0272L119.025 71.484C118.447 72.0659 117.759 72.5277 117.002 72.8428C116.244 73.1579 115.432 73.32 114.611 73.32C113.791 73.32 112.979 73.1579 112.221 72.8428C111.464 72.5277 110.776 72.0659 110.197 71.484L53.9627 15.183C53.3781 14.6061 52.9139 13.9188 52.5971 13.1611C52.2804 12.4033 52.1173 11.5903 52.1173 10.769C52.1173 9.94767 52.2804 9.13459 52.5971 8.37686C52.9139 7.61913 53.3781 6.93183 53.9627 6.35493L95.3 -34.8721C96.8991 -36.6246 97.7616 -38.9257 97.7084 -41.2974C97.6551 -43.6692 96.6903 -45.9292 95.0142 -47.6081C93.3381 -49.287 91.0797 -50.2558 88.708 -50.313C86.3363 -50.3703 84.0338 -49.5118 82.2786 -47.9157L40.9192 -6.57815C40.3438 -5.99091 39.657 -5.52439 38.8991 -5.20591C38.1411 -4.88742 37.3273 -4.72338 36.5051 -4.72338C35.683 -4.72338 34.8691 -4.88742 34.1112 -5.2059C33.3532 -5.52439 32.6665 -5.99091 32.0911 -6.57815L16.9068 -21.7624C15.1508 -23.433 12.8198 -24.3647 10.3961 -24.3647C7.9724 -24.3647 5.64147 -23.433 3.88544 -21.7624C2.16216 -20.0266 1.19867 -17.6776 1.20696 -15.2316C1.21523 -12.7857 2.19456 -10.4431 3.92956 -8.71902Z" fill="#C7D07F"/>
<path d="M160.782 96.0481C162.542 97.7201 164.876 98.6524 167.304 98.6524C169.731 98.6524 172.066 97.7201 173.825 96.0481L240.985 28.8886C241.56 28.3014 242.247 27.8349 243.005 27.5164C243.763 27.1979 244.577 27.0337 245.399 27.0337C246.221 27.0337 247.035 27.1979 247.793 27.5164C248.551 27.8349 249.238 28.3014 249.813 28.8886L280.27 59.3233C280.854 59.9002 281.318 60.5875 281.635 61.3453C281.952 62.103 282.115 62.9161 282.115 63.7373C282.115 64.5586 281.952 65.3717 281.635 66.1295C281.318 66.8872 280.854 67.5745 280.27 68.1514L276.143 72.2785C274.955 73.417 273.374 74.0526 271.729 74.0526C270.084 74.0526 268.502 73.417 267.315 72.2785L251.998 56.8294C250.245 55.2303 247.944 54.3679 245.573 54.4211C243.201 54.4744 240.941 55.4391 239.262 57.1152C237.583 58.7913 236.614 61.0498 236.557 63.4215C236.5 65.7931 237.358 68.0957 238.954 69.8508L254.293 85.1895C254.875 85.7679 255.337 86.4558 255.652 87.2133C255.967 87.9708 256.129 88.7831 256.129 89.6035C256.129 90.424 255.967 91.2363 255.652 91.9939C255.337 92.7514 254.875 93.4391 254.293 94.0175L213.066 135.245C212.211 136.099 211.532 137.114 211.069 138.231C210.606 139.349 210.368 140.546 210.368 141.755C210.368 142.965 210.606 144.162 211.069 145.279C211.532 146.396 212.211 147.411 213.066 148.266L239.33 174.463C241.082 176.062 243.383 176.925 245.755 176.872C248.127 176.818 250.387 175.854 252.066 174.177C253.745 172.501 254.713 170.243 254.771 167.871C254.828 165.5 253.969 163.197 252.373 161.442L237.034 146.103C236.452 145.525 235.991 144.837 235.676 144.08C235.36 143.322 235.198 142.51 235.198 141.689C235.198 140.869 235.36 140.056 235.676 139.299C235.991 138.541 236.452 137.854 237.034 137.275L293.247 81.0624C294.429 79.9137 296.013 79.2712 297.661 79.2712C299.309 79.2712 300.893 79.9137 302.075 81.0624L332.113 111.254C332.7 111.83 333.166 112.517 333.485 113.275C333.803 114.032 333.967 114.846 333.967 115.668C333.967 116.491 333.803 117.304 333.485 118.062C333.166 118.82 332.7 119.507 332.113 120.083L316.906 135.289C315.983 136.128 315.24 137.146 314.722 138.281C314.203 139.416 313.92 140.644 313.89 141.891C313.86 143.139 314.083 144.379 314.546 145.538C315.009 146.696 315.703 147.749 316.584 148.632C317.466 149.515 318.517 150.21 319.675 150.675C320.833 151.14 322.073 151.365 323.32 151.337C324.567 151.309 325.796 151.028 326.932 150.512C328.067 149.995 329.087 149.254 329.928 148.332L356.059 122.201C357.781 120.472 358.748 118.131 358.748 115.69C358.748 113.25 357.781 110.909 356.059 109.18L251.888 4.9866C250.155 3.26286 247.81 2.29518 245.366 2.29518C242.922 2.29518 240.577 3.26286 238.844 4.9866L160.782 83.0488C159.066 84.7769 158.103 87.1133 158.103 89.5484C158.103 91.9836 159.066 94.32 160.782 96.0481Z" fill="#C7D07F"/>
<path d="M134.673 122.003L238.844 226.196C240.58 227.914 242.924 228.878 245.366 228.878C247.809 228.878 250.152 227.914 251.888 226.196L304.084 173.934C305.813 172.204 306.784 169.858 306.784 167.412C306.784 164.966 305.813 162.62 304.084 160.89L289.054 145.861C288.469 145.284 288.005 144.597 287.689 143.839C287.372 143.081 287.209 142.268 287.209 141.447C287.209 140.625 287.372 139.812 287.689 139.055C288.005 138.297 288.469 137.609 289.054 137.033L304.282 121.804C305.879 120.049 306.737 117.746 306.68 115.375C306.623 113.003 305.654 110.745 303.975 109.069C302.296 107.393 300.036 106.428 297.664 106.374C295.293 106.321 292.991 107.184 291.239 108.783L265.108 134.892C263.389 136.627 262.426 138.971 262.426 141.414C262.426 143.856 263.39 146.2 265.108 147.935L280.204 163.053C280.791 163.629 281.258 164.316 281.576 165.073C281.895 165.831 282.059 166.645 282.059 167.467C282.059 168.289 281.895 169.103 281.576 169.861C281.258 170.619 280.791 171.306 280.204 171.881L249.747 202.338C249.172 202.925 248.485 203.392 247.727 203.711C246.969 204.029 246.155 204.193 245.333 204.193C244.511 204.193 243.697 204.029 242.939 203.711C242.181 203.392 241.494 202.925 240.919 202.338L184.618 146.037C184.033 145.46 183.569 144.773 183.253 144.015C182.936 143.258 182.773 142.445 182.773 141.623C182.773 140.802 182.936 139.989 183.253 139.231C183.569 138.473 184.033 137.786 184.618 137.209L225.977 95.8718C227.645 94.1295 228.564 91.8034 228.538 89.3918C228.512 86.9801 227.542 84.6748 225.836 82.9694C224.131 81.264 221.826 80.2942 219.414 80.2679C217.002 80.2415 214.676 81.1607 212.934 82.8284L171.663 124.144C171.086 124.728 170.399 125.192 169.641 125.509C168.883 125.826 168.07 125.989 167.249 125.989C166.428 125.989 165.614 125.826 164.857 125.509C164.099 125.192 163.412 124.728 162.835 124.144L147.673 108.981C145.915 107.304 143.58 106.369 141.151 106.369C138.722 106.369 136.386 107.304 134.629 108.981C133.776 109.839 133.101 110.856 132.642 111.975C132.183 113.094 131.948 114.292 131.953 115.501C131.957 116.711 132.199 117.907 132.666 119.023C133.133 120.138 133.815 121.151 134.673 122.003Z" fill="#C7D07F"/>
<path d="M291.504 226.77C293.261 228.447 295.597 229.383 298.025 229.383C300.454 229.383 302.79 228.447 304.547 226.77L371.707 159.61C372.285 159.028 372.973 158.567 373.73 158.252C374.488 157.936 375.3 157.774 376.121 157.774C376.941 157.774 377.754 157.936 378.511 158.252C379.269 158.567 379.956 159.028 380.535 159.61L411.058 190.133C411.642 190.71 412.106 191.398 412.423 192.155C412.74 192.913 412.903 193.726 412.903 194.547C412.903 195.369 412.74 196.182 412.423 196.94C412.106 197.697 411.642 198.384 411.058 198.961L406.931 203.089C405.746 204.232 404.163 204.871 402.517 204.871C400.87 204.871 399.288 204.232 398.103 203.089L382.764 187.75C381.914 186.862 380.896 186.154 379.769 185.665C378.642 185.176 377.429 184.918 376.2 184.904C374.972 184.891 373.753 185.123 372.616 185.587C371.478 186.051 370.445 186.737 369.576 187.606C368.708 188.474 368.021 189.508 367.557 190.645C367.093 191.783 366.861 193.001 366.875 194.23C366.888 195.458 367.147 196.671 367.635 197.799C368.124 198.926 368.833 199.944 369.72 200.793L385.059 216.022C385.644 216.599 386.108 217.286 386.425 218.044C386.741 218.801 386.905 219.614 386.905 220.436C386.905 221.257 386.741 222.07 386.425 222.828C386.108 223.586 385.644 224.273 385.059 224.85L343.81 266.055C342.081 267.785 341.11 270.131 341.11 272.576C341.11 275.022 342.081 277.368 343.81 279.098L370.096 305.296C370.937 306.217 371.956 306.959 373.091 307.475C374.227 307.991 375.456 308.272 376.703 308.3C377.951 308.328 379.191 308.103 380.348 307.638C381.506 307.173 382.558 306.478 383.439 305.595C384.321 304.712 385.014 303.659 385.477 302.501C385.94 301.342 386.163 300.102 386.133 298.855C386.103 297.607 385.82 296.379 385.302 295.244C384.783 294.109 384.04 293.091 383.117 292.252L367.8 276.803C367.213 276.228 366.747 275.541 366.428 274.783C366.11 274.025 365.945 273.211 365.945 272.389C365.945 271.567 366.11 270.753 366.428 269.995C366.747 269.237 367.213 268.55 367.8 267.975L424.013 211.762C425.198 210.619 426.78 209.98 428.427 209.98C430.074 209.98 431.656 210.619 432.841 211.762L462.901 241.822C463.485 242.399 463.949 243.086 464.266 243.844C464.583 244.601 464.746 245.414 464.746 246.236C464.746 247.057 464.583 247.87 464.266 248.628C463.949 249.386 463.485 250.073 462.901 250.65L447.672 265.878C445.95 267.607 444.983 269.948 444.983 272.389C444.983 274.829 445.95 277.17 447.672 278.9C449.402 280.629 451.748 281.6 454.194 281.6C456.64 281.6 458.986 280.629 460.716 278.9L486.825 252.791C487.686 251.937 488.37 250.921 488.837 249.802C489.303 248.682 489.544 247.482 489.544 246.269C489.544 245.056 489.303 243.855 488.837 242.736C488.37 241.617 487.686 240.601 486.825 239.747L382.654 135.576C381.8 134.714 380.784 134.031 379.665 133.564C378.545 133.097 377.345 132.857 376.132 132.857C374.919 132.857 373.718 133.097 372.599 133.564C371.48 134.031 370.464 134.714 369.61 135.576L291.504 213.815C289.812 215.546 288.865 217.871 288.865 220.292C288.865 222.713 289.812 225.038 291.504 226.77Z" fill="#C7D07F"/>
<path d="M265.394 252.746L369.588 356.918C370.442 357.773 371.457 358.452 372.574 358.915C373.692 359.378 374.889 359.616 376.098 359.616C377.308 359.616 378.505 359.378 379.622 358.915C380.739 358.452 381.754 357.773 382.609 356.918L434.871 304.655C435.727 303.801 436.405 302.786 436.868 301.669C437.331 300.551 437.57 299.354 437.57 298.145C437.57 296.935 437.331 295.738 436.868 294.621C436.405 293.504 435.727 292.489 434.871 291.634L419.841 276.604C419.259 276.026 418.798 275.338 418.483 274.581C418.167 273.823 418.005 273.011 418.005 272.19C418.005 271.37 418.167 270.557 418.483 269.8C418.798 269.042 419.259 268.355 419.841 267.776L435.07 252.57C436.737 250.828 437.657 248.502 437.63 246.09C437.604 243.678 436.634 241.373 434.929 239.667C433.223 237.962 430.918 236.992 428.506 236.966C426.095 236.94 423.769 237.859 422.026 239.526L395.917 265.657C395.062 266.512 394.383 267.527 393.92 268.644C393.457 269.761 393.219 270.959 393.219 272.168C393.219 273.377 393.457 274.575 393.92 275.692C394.383 276.809 395.062 277.824 395.917 278.679L410.947 293.709C412.117 294.88 412.774 296.467 412.774 298.123C412.774 299.778 412.117 301.366 410.947 302.537L380.49 332.994C379.913 333.578 379.226 334.042 378.468 334.359C377.711 334.676 376.897 334.839 376.076 334.839C375.255 334.839 374.442 334.676 373.684 334.359C372.926 334.042 372.239 333.578 371.662 332.994L315.383 276.715C314.796 276.139 314.329 275.452 314.011 274.695C313.693 273.937 313.528 273.123 313.528 272.301C313.528 271.478 313.693 270.665 314.011 269.907C314.329 269.149 314.796 268.462 315.383 267.887L356.721 226.549C357.642 225.708 358.384 224.689 358.9 223.553C359.417 222.418 359.697 221.189 359.725 219.942C359.753 218.694 359.528 217.454 359.063 216.296C358.598 215.139 357.903 214.087 357.02 213.206C356.137 212.324 355.085 211.631 353.926 211.168C352.767 210.705 351.527 210.482 350.28 210.512C349.032 210.542 347.804 210.825 346.669 211.343C345.535 211.862 344.517 212.605 343.677 213.528L302.34 254.865C301.761 255.447 301.074 255.909 300.316 256.224C299.559 256.539 298.746 256.701 297.926 256.701C297.105 256.701 296.293 256.539 295.535 256.224C294.778 255.909 294.09 255.447 293.512 254.865L278.327 239.681C276.57 238.004 274.235 237.068 271.806 237.068C269.377 237.068 267.041 238.004 265.284 239.681C264.432 240.545 263.758 241.569 263.303 242.694C262.847 243.819 262.617 245.023 262.628 246.237C262.638 247.45 262.887 248.65 263.362 249.767C263.837 250.884 264.528 251.897 265.394 252.746Z" fill="#C7D07F"/>
<path d="M292.122 -35.2912C293.881 -33.6192 296.216 -32.687 298.643 -32.687C301.071 -32.687 303.405 -33.6192 305.165 -35.2912L372.324 -102.451C372.9 -103.038 373.587 -103.504 374.345 -103.823C375.102 -104.141 375.916 -104.305 376.738 -104.305C377.561 -104.305 378.375 -104.141 379.132 -103.823C379.89 -103.504 380.577 -103.038 381.153 -102.451L411.676 -71.9277C412.26 -71.3507 412.724 -70.6636 413.041 -69.9059C413.358 -69.1481 413.521 -68.3349 413.521 -67.5136C413.521 -66.6923 413.358 -65.8793 413.041 -65.1215C412.724 -64.3638 412.26 -63.6765 411.676 -63.0996L407.548 -58.9725C406.361 -57.834 404.78 -57.1984 403.134 -57.1984C401.489 -57.1984 399.908 -57.834 398.72 -58.9725L383.404 -74.4216C381.661 -76.0893 379.335 -77.0084 376.924 -76.9821C374.512 -76.9557 372.207 -75.9859 370.501 -74.2806C368.796 -72.5752 367.826 -70.2698 367.8 -67.8582C367.773 -65.4466 368.693 -63.1204 370.36 -61.3782L385.743 -46.0173C386.325 -45.4389 386.787 -44.7512 387.102 -43.9936C387.417 -43.2361 387.579 -42.4237 387.579 -41.6033C387.579 -40.7828 387.417 -39.9705 387.102 -39.2129C386.787 -38.4554 386.325 -37.7676 385.743 -37.1892L344.516 4.03782C343.661 4.89253 342.982 5.9075 342.519 7.02464C342.056 8.14179 341.818 9.33923 341.818 10.5485C341.818 11.7578 342.056 12.9553 342.519 14.0724C342.982 15.1896 343.661 16.2044 344.516 17.0591L370.78 43.2564C372.532 44.8555 374.833 45.718 377.205 45.6648C379.577 45.6116 381.837 44.6466 383.516 42.9706C385.195 41.2945 386.163 39.0361 386.22 36.6644C386.278 34.2928 385.419 31.9902 383.823 30.2351L368.484 14.8963C367.902 14.3179 367.441 13.6301 367.126 12.8726C366.81 12.1151 366.648 11.3027 366.648 10.4823C366.648 9.66181 366.81 8.84944 367.126 8.09191C367.441 7.33438 367.902 6.64664 368.484 6.06823L424.697 -50.1444C425.879 -51.2931 427.463 -51.9357 429.111 -51.9357C430.759 -51.9357 432.343 -51.2931 433.525 -50.1444L463.452 -20.129C464.039 -19.5537 464.506 -18.8669 464.824 -18.109C465.143 -17.3511 465.307 -16.5372 465.307 -15.715C465.307 -14.8929 465.143 -14.079 464.824 -13.321C464.506 -12.5631 464.039 -11.8764 463.452 -11.301L448.246 3.90539C447.323 4.7448 446.58 5.76274 446.061 6.89761C445.543 8.03247 445.26 9.2607 445.23 10.508C445.2 11.7553 445.423 12.9956 445.886 14.1542C446.349 15.3127 447.042 16.3654 447.924 17.2484C448.805 18.1313 449.857 18.8263 451.014 19.2913C452.172 19.7563 453.412 19.9815 454.66 19.9535C455.907 19.9255 457.136 19.6448 458.271 19.1283C459.407 18.6119 460.426 17.8704 461.267 16.9488L487.398 -9.09397C489.121 -10.823 490.088 -13.1642 490.088 -15.6047C490.088 -18.0452 489.121 -20.3864 487.398 -22.1154L383.227 -126.309C381.494 -128.032 379.15 -129 376.705 -129C374.261 -129 371.916 -128.032 370.184 -126.309L292.122 -48.2464C290.419 -46.5202 289.465 -44.1932 289.465 -41.7688C289.465 -39.3444 290.419 -37.0175 292.122 -35.2912Z" fill="#C7D07F"/>
<path d="M266.012 -9.33658L370.184 94.8566C371.919 96.575 374.263 97.5389 376.705 97.5389C379.148 97.5389 381.492 96.575 383.227 94.8566L435.489 42.5944C437.218 40.8645 438.19 38.5187 438.19 36.0728C438.19 33.6268 437.218 31.281 435.489 29.551L420.459 14.5212C419.875 13.9443 419.411 13.2571 419.094 12.4993C418.777 11.7416 418.614 10.9285 418.614 10.1072C418.614 9.28593 418.777 8.47285 419.094 7.71511C419.411 6.95738 419.875 6.27009 420.459 5.69319L435.688 -9.53528C436.61 -10.3763 437.351 -11.3954 437.867 -12.5311C438.384 -13.6669 438.665 -14.8955 438.693 -16.1429C438.721 -17.3902 438.495 -18.6304 438.03 -19.7881C437.565 -20.9459 436.87 -21.9972 435.987 -22.8787C435.104 -23.7601 434.052 -24.4535 432.893 -24.9165C431.735 -25.3795 430.494 -25.6026 429.247 -25.5725C428 -25.5424 426.771 -25.2596 425.637 -24.7412C424.502 -24.2229 423.484 -23.4796 422.644 -22.5566L396.513 3.55231C394.784 5.28227 393.813 7.62814 393.813 10.0741C393.813 12.52 394.784 14.8659 396.513 16.5959L411.543 31.6256C412.13 32.201 412.597 32.8877 412.915 33.6457C413.234 34.4036 413.398 35.2175 413.398 36.0397C413.398 36.8618 413.234 37.6757 412.915 38.4336C412.597 39.1916 412.13 39.8783 411.543 40.4537L381.086 70.9105C380.511 71.4977 379.824 71.9642 379.066 72.2827C378.308 72.6012 377.494 72.7652 376.672 72.7652C375.85 72.7652 375.036 72.6012 374.278 72.2827C373.52 71.9642 372.834 71.4977 372.258 70.9105L315.957 14.6316C315.375 14.0532 314.914 13.3654 314.599 12.6079C314.283 11.8504 314.121 11.038 314.121 10.2175C314.121 9.3971 314.283 8.58473 314.599 7.8272C314.914 7.06967 315.375 6.38193 315.957 5.80352L357.383 -35.578C358.675 -36.8747 359.552 -38.5265 359.902 -40.323C360.253 -42.1196 360.061 -43.9798 359.351 -45.6669C358.641 -47.3541 357.445 -48.792 355.916 -49.7976C354.386 -50.8032 352.592 -51.331 350.762 -51.3141C349.553 -51.3173 348.355 -51.081 347.237 -50.6189C346.12 -50.1567 345.105 -49.4778 344.251 -48.6214L302.914 -7.26198C301.743 -6.09215 300.155 -5.4351 298.5 -5.4351C296.844 -5.4351 295.257 -6.09215 294.086 -7.26198L278.901 -22.4463C277.151 -24.1269 274.818 -25.0653 272.391 -25.0653C269.964 -25.0653 267.631 -24.1269 265.88 -22.4463C265.02 -21.5812 264.34 -20.5539 263.881 -19.4239C263.421 -18.2938 263.191 -17.0836 263.203 -15.8637C263.215 -14.6439 263.47 -13.4386 263.952 -12.318C264.435 -11.1975 265.135 -10.184 266.012 -9.33658Z" fill="#C7D07F"/>
</svg>
