<svg width="257" height="517" viewBox="0 0 257 517" fill="none" xmlns="http://www.w3.org/2000/svg">
<path d="M65.2439 214.042C69.2393 217.878 74.5629 220.021 80.101 220.021C85.6392 220.021 90.9629 217.878 94.9583 214.042L248.214 60.7975C249.53 59.4632 251.099 58.4038 252.828 57.6807C254.557 56.9576 256.412 56.5853 258.286 56.5853C260.161 56.5853 262.016 56.9576 263.745 57.6807C265.474 58.4038 267.043 59.4632 268.359 60.7975L337.961 130.418C339.301 131.731 340.366 133.299 341.093 135.029C341.819 136.759 342.194 138.616 342.194 140.493C342.194 142.369 341.819 144.227 341.093 145.957C340.366 147.687 339.301 149.255 337.961 150.568L328.543 159.989C325.839 162.599 322.228 164.057 318.471 164.057C314.713 164.057 311.102 162.599 308.398 159.989L273.395 124.977C271.444 123.025 269.128 121.477 266.579 120.421C264.03 119.365 261.297 118.821 258.538 118.821C255.779 118.821 253.047 119.365 250.498 120.421C247.948 121.477 245.632 123.025 243.681 124.977C241.73 126.929 240.182 129.245 239.126 131.795C238.071 134.345 237.527 137.078 237.527 139.838C237.527 142.598 238.071 145.331 239.126 147.881C240.182 150.431 241.73 152.747 243.681 154.699L278.633 189.963C279.973 191.276 281.038 192.843 281.765 194.573C282.491 196.303 282.866 198.161 282.866 200.038C282.866 201.914 282.491 203.772 281.765 205.502C281.038 207.232 279.973 208.8 278.633 210.113L184.605 303.612C180.687 307.565 178.488 312.906 178.488 318.473C178.488 324.039 180.687 329.381 184.605 333.334L244.436 393.282C246.352 395.388 248.675 397.085 251.265 398.268C253.854 399.451 256.657 400.097 259.503 400.165C262.35 400.234 265.18 399.725 267.824 398.668C270.468 397.611 272.87 396.029 274.885 394.017C276.899 392.005 278.486 389.605 279.547 386.962C280.608 384.319 281.122 381.489 281.058 378.642C280.994 375.795 280.353 372.99 279.175 370.398C277.996 367.805 276.304 365.479 274.201 363.559L239.199 328.296C237.865 326.979 236.806 325.41 236.083 323.681C235.36 321.951 234.988 320.095 234.988 318.221C234.988 316.346 235.36 314.49 236.083 312.761C236.806 311.031 237.865 309.462 239.199 308.145L367.625 180.189C370.329 177.579 373.94 176.121 377.698 176.121C381.455 176.121 385.067 177.579 387.77 180.189L455.962 248.802C457.296 250.119 458.355 251.688 459.078 253.417C459.801 255.147 460.173 257.003 460.173 258.877C460.173 260.752 459.801 262.608 459.078 264.338C458.355 266.067 457.296 267.636 455.962 268.953L421.212 303.712C417.406 307.689 415.309 312.999 415.369 318.503C415.429 324.008 417.642 329.27 421.534 333.163C425.425 337.055 430.686 339.269 436.189 339.329C441.693 339.389 447.001 337.291 450.976 333.485L510.858 273.688C514.792 269.733 517 264.381 517 258.802C517 253.223 514.792 247.871 510.858 243.916L273.093 6.13911C269.148 2.20765 263.805 0.000252523 258.236 0.000252036C252.667 0.000251549 247.325 2.20765 243.379 6.13911L65.2439 184.32C63.2917 186.271 61.743 188.588 60.6864 191.138C59.6297 193.688 59.0858 196.421 59.0858 199.181C59.0858 201.942 59.6297 204.675 60.6864 207.225C61.743 209.775 63.2917 212.091 65.2439 214.042Z" fill="#007866"/>
<path d="M65.2439 214.042C69.2393 217.878 74.5629 220.021 80.101 220.021C85.6392 220.021 90.9629 217.878 94.9583 214.042L248.214 60.7975C249.53 59.4632 251.099 58.4038 252.828 57.6807C254.557 56.9576 256.412 56.5853 258.286 56.5853C260.161 56.5853 262.016 56.9576 263.745 57.6807C265.474 58.4038 267.043 59.4632 268.359 60.7975L337.961 130.418C339.301 131.731 340.366 133.299 341.093 135.029C341.819 136.759 342.194 138.616 342.194 140.493C342.194 142.369 341.819 144.227 341.093 145.957C340.366 147.687 339.301 149.255 337.961 150.568L328.543 159.989C325.839 162.599 322.228 164.057 318.471 164.057C314.713 164.057 311.102 162.599 308.398 159.989L273.395 124.977C271.444 123.025 269.128 121.477 266.579 120.421C264.03 119.365 261.297 118.821 258.538 118.821C255.779 118.821 253.047 119.365 250.498 120.421C247.948 121.477 245.632 123.025 243.681 124.977C241.73 126.929 240.182 129.245 239.126 131.795C238.071 134.345 237.527 137.078 237.527 139.838C237.527 142.598 238.071 145.331 239.126 147.881C240.182 150.431 241.73 152.747 243.681 154.699L278.633 189.963C279.973 191.276 281.038 192.843 281.765 194.573C282.491 196.303 282.866 198.161 282.866 200.038C282.866 201.914 282.491 203.772 281.765 205.502C281.038 207.232 279.973 208.8 278.633 210.113L184.605 303.612C180.687 307.565 178.488 312.906 178.488 318.473C178.488 324.039 180.687 329.381 184.605 333.334L244.436 393.282C246.352 395.388 248.675 397.085 251.265 398.268C253.854 399.451 256.657 400.097 259.503 400.165C262.35 400.234 265.18 399.725 267.824 398.668C270.468 397.611 272.87 396.029 274.885 394.017C276.899 392.005 278.486 389.605 279.547 386.962C280.608 384.319 281.122 381.489 281.058 378.642C280.994 375.795 280.353 372.99 279.175 370.398C277.996 367.805 276.304 365.479 274.201 363.559L239.199 328.296C237.865 326.979 236.806 325.41 236.083 323.681C235.36 321.951 234.988 320.095 234.988 318.221C234.988 316.346 235.36 314.49 236.083 312.761C236.806 311.031 237.865 309.462 239.199 308.145L367.625 180.189C370.329 177.579 373.94 176.121 377.698 176.121C381.455 176.121 385.067 177.579 387.77 180.189L455.962 248.802C457.296 250.119 458.355 251.688 459.078 253.417C459.801 255.147 460.173 257.003 460.173 258.877C460.173 260.752 459.801 262.608 459.078 264.338C458.355 266.067 457.296 267.636 455.962 268.953L421.212 303.712C417.406 307.689 415.309 312.999 415.369 318.503C415.429 324.008 417.642 329.27 421.534 333.163C425.425 337.055 430.686 339.269 436.189 339.329C441.693 339.389 447.001 337.291 450.976 333.485L510.858 273.688C514.792 269.733 517 264.381 517 258.802C517 253.223 514.792 247.871 510.858 243.916L273.093 6.13911C269.148 2.20765 263.805 0.000252523 258.236 0.000252036C252.667 0.000251549 247.325 2.20765 243.379 6.13911L65.2439 184.32C63.2917 186.271 61.743 188.588 60.6864 191.138C59.6297 193.688 59.0858 196.421 59.0858 199.181C59.0858 201.942 59.6297 204.675 60.6864 207.225C61.743 209.775 63.2917 212.091 65.2439 214.042Z" fill="black" fill-opacity="0.2"/>
<path d="M6.16045 272.973L243.764 510.874C247.723 514.799 253.069 517 258.639 517C264.21 517 269.556 514.799 273.515 510.874L392.669 391.52C396.613 387.57 398.829 382.212 398.829 376.626C398.829 371.04 396.613 365.683 392.669 361.732L358.438 327.408C357.092 326.098 356.023 324.53 355.292 322.799C354.562 321.067 354.186 319.207 354.186 317.327C354.186 315.448 354.562 313.587 355.292 311.856C356.023 310.125 357.092 308.557 358.438 307.247L393.122 272.469C396.763 268.461 398.721 263.202 398.591 257.786C398.46 252.37 396.25 247.212 392.421 243.384C388.591 239.556 383.436 237.353 378.027 237.231C372.617 237.11 367.368 239.079 363.371 242.731L303.819 302.358C299.875 306.309 297.66 311.666 297.66 317.252C297.66 322.838 299.875 328.195 303.819 332.146L338.101 366.47C339.428 367.791 340.481 369.362 341.2 371.092C341.919 372.822 342.289 374.677 342.289 376.551C342.289 378.424 341.919 380.28 341.2 382.01C340.481 383.74 339.428 385.31 338.101 386.631L268.632 456.187C267.313 457.516 265.744 458.571 264.016 459.29C262.288 460.01 260.435 460.38 258.564 460.38C256.693 460.38 254.84 460.01 253.112 459.29C251.384 458.571 249.815 457.516 248.496 456.187L120.079 327.61C118.746 326.292 117.687 324.723 116.965 322.992C116.242 321.262 115.87 319.405 115.87 317.529C115.87 315.653 116.242 313.796 116.965 312.066C117.687 310.336 118.746 308.766 120.079 307.448L214.617 213.195C217.564 210.234 219.564 206.462 220.364 202.359C221.163 198.256 220.725 194.008 219.106 190.155C217.487 186.302 214.759 183.018 211.271 180.721C207.782 178.425 203.69 177.219 199.515 177.258C196.756 177.239 194.02 177.774 191.47 178.83C188.919 179.886 186.606 181.442 184.665 183.407L90.4795 278.013C89.1672 279.354 87.6008 280.42 85.872 281.147C84.1432 281.874 82.2868 282.249 80.4116 282.249C78.5364 282.249 76.6801 281.874 74.9513 281.147C73.2225 280.42 71.656 279.354 70.3436 278.013L35.7099 243.336C31.7046 239.521 26.3879 237.393 20.8597 237.393C15.3315 237.393 10.0147 239.521 6.00942 243.336C2.13146 247.3 -0.02787 252.637 0.000419355 258.186C0.0286781 263.735 2.24227 269.048 6.16045 272.973Z" fill="#007866"/>
<path d="M6.16045 272.973L243.764 510.874C247.723 514.799 253.069 517 258.639 517C264.21 517 269.556 514.799 273.515 510.874L392.669 391.52C396.613 387.57 398.829 382.212 398.829 376.626C398.829 371.04 396.613 365.683 392.669 361.732L358.438 327.408C357.092 326.098 356.023 324.53 355.292 322.799C354.562 321.067 354.186 319.207 354.186 317.327C354.186 315.448 354.562 313.587 355.292 311.856C356.023 310.125 357.092 308.557 358.438 307.247L393.122 272.469C396.763 268.461 398.721 263.202 398.591 257.786C398.46 252.37 396.25 247.212 392.421 243.384C388.591 239.556 383.436 237.353 378.027 237.231C372.617 237.11 367.368 239.079 363.371 242.731L303.819 302.358C299.875 306.309 297.66 311.666 297.66 317.252C297.66 322.838 299.875 328.195 303.819 332.146L338.101 366.47C339.428 367.791 340.481 369.362 341.2 371.092C341.919 372.822 342.289 374.677 342.289 376.551C342.289 378.424 341.919 380.28 341.2 382.01C340.481 383.74 339.428 385.31 338.101 386.631L268.632 456.187C267.313 457.516 265.744 458.571 264.016 459.29C262.288 460.01 260.435 460.38 258.564 460.38C256.693 460.38 254.84 460.01 253.112 459.29C251.384 458.571 249.815 457.516 248.496 456.187L120.079 327.61C118.746 326.292 117.687 324.723 116.965 322.992C116.242 321.262 115.87 319.405 115.87 317.529C115.87 315.653 116.242 313.796 116.965 312.066C117.687 310.336 118.746 308.766 120.079 307.448L214.617 213.195C217.564 210.234 219.564 206.462 220.364 202.359C221.163 198.256 220.725 194.008 219.106 190.155C217.487 186.302 214.759 183.018 211.271 180.721C207.782 178.425 203.69 177.219 199.515 177.258C196.756 177.239 194.02 177.774 191.47 178.83C188.919 179.886 186.606 181.442 184.665 183.407L90.4795 278.013C89.1672 279.354 87.6008 280.42 85.872 281.147C84.1432 281.874 82.2868 282.249 80.4116 282.249C78.5364 282.249 76.6801 281.874 74.9513 281.147C73.2225 280.42 71.656 279.354 70.3436 278.013L35.7099 243.336C31.7046 239.521 26.3879 237.393 20.8597 237.393C15.3315 237.393 10.0147 239.521 6.00942 243.336C2.13146 247.3 -0.02787 252.637 0.000419355 258.186C0.0286781 263.735 2.24227 269.048 6.16045 272.973Z" fill="black" fill-opacity="0.2"/>
</svg>
