<svg width="890" height="497" viewBox="0 0 890 497" fill="none" xmlns="http://www.w3.org/2000/svg">
<path d="M727.563 135.333C725.772 133.628 723.396 132.677 720.926 132.677C718.456 132.677 716.08 133.628 714.289 135.333L645.962 203.833C645.375 204.429 644.675 204.902 643.904 205.226C643.133 205.549 642.305 205.715 641.47 205.715C640.634 205.715 639.806 205.549 639.035 205.226C638.264 204.902 637.565 204.429 636.977 203.833L605.936 172.723C605.338 172.136 604.864 171.436 604.54 170.663C604.215 169.89 604.048 169.06 604.048 168.221C604.048 167.383 604.215 166.552 604.54 165.779C604.864 165.006 605.338 164.306 605.936 163.719L610.114 159.51C611.322 158.348 612.932 157.7 614.606 157.7C616.28 157.7 617.89 158.348 619.098 159.51L634.821 175.267C636.579 177.028 638.962 178.018 641.447 178.018C643.932 178.018 646.316 177.028 648.073 175.267C649.831 173.506 650.818 171.117 650.818 168.626C650.818 166.136 649.831 163.747 648.073 161.986L632.463 146.228C631.871 145.638 631.401 144.937 631.08 144.164C630.759 143.392 630.594 142.563 630.594 141.726C630.594 140.889 630.759 140.061 631.08 139.288C631.401 138.516 631.871 137.814 632.463 137.224L674.42 95.1747C675.291 94.303 675.982 93.2677 676.453 92.1283C676.924 90.9889 677.167 89.7675 677.167 88.5341C677.167 87.3007 676.924 86.0793 676.453 84.9399C675.982 83.8005 675.291 82.7653 674.42 81.8936L647.691 55.1736C646.837 54.2321 645.801 53.4741 644.646 52.9454C643.491 52.4167 642.241 52.1282 640.972 52.0975C639.702 52.0668 638.44 52.2944 637.261 52.7667C636.082 53.239 635.011 53.946 634.112 54.8451C633.213 55.7441 632.506 56.8165 632.033 57.9974C631.56 59.1783 631.33 60.443 631.359 61.7153C631.387 62.9875 631.673 64.2407 632.199 65.3991C632.724 66.5575 633.479 67.597 634.417 68.4548L650.027 84.2121C650.625 84.799 651.1 85.4994 651.424 86.2725C651.748 87.0455 651.915 87.8757 651.915 88.7142C651.915 89.5528 651.748 90.3828 651.424 91.1559C651.1 91.929 650.625 92.6295 650.027 93.2163L592.819 150.573C591.613 151.739 590.002 152.391 588.327 152.391C586.651 152.391 585.04 151.739 583.834 150.573L553.242 119.914C552.645 119.327 552.17 118.626 551.846 117.853C551.522 117.08 551.355 116.25 551.355 115.412C551.355 114.573 551.522 113.743 551.846 112.97C552.17 112.197 552.645 111.496 553.242 110.91L568.718 95.3998C570.345 93.6124 571.223 91.2654 571.169 88.8463C571.115 86.4273 570.133 84.1221 568.427 82.4097C566.721 80.6972 564.423 79.7092 562.009 79.6508C559.595 79.5924 557.252 80.4682 555.466 82.0961L528.737 108.703C526.984 110.467 526 112.855 526 115.344C526 117.833 526.984 120.221 528.737 121.985L634.776 228.257C636.536 230.013 638.919 231 641.402 231C643.886 231 646.269 230.013 648.028 228.257L727.563 148.547C729.296 146.786 730.267 144.413 730.267 141.94C730.267 139.467 729.296 137.094 727.563 135.333Z" fill="#C8D07F" fill-opacity="0.4"/>
<path d="M754.264 108.833L648.199 2.73153C646.432 0.981648 644.045 0 641.558 0C639.072 0 636.685 0.981648 634.918 2.73153L581.706 55.951C579.956 57.7184 578.975 60.1051 578.975 62.5922C578.975 65.0794 579.956 67.466 581.706 69.2334L597.009 84.5385C597.61 85.1228 598.087 85.8216 598.413 86.5937C598.739 87.3657 598.907 88.1953 598.907 89.0334C598.907 89.8715 598.739 90.701 598.413 91.4731C598.087 92.2451 597.61 92.9439 597.009 93.5283L581.526 109.036C579.768 110.794 578.78 113.179 578.78 115.666C578.78 118.152 579.768 120.537 581.526 122.296C583.284 124.054 585.669 125.042 588.155 125.042C590.642 125.042 593.026 124.054 594.784 122.296L621.39 95.7083C623.151 93.9466 624.14 91.5579 624.14 89.0671C624.14 86.5764 623.151 84.1875 621.39 82.4259L606.087 67.1208C605.489 66.5349 605.014 65.8355 604.69 65.0637C604.366 64.2919 604.199 63.4631 604.199 62.6259C604.199 61.7887 604.366 60.96 604.69 60.1881C605.014 59.4163 605.489 58.7169 606.087 58.131L637.098 27.1163C637.684 26.5183 638.383 26.0433 639.155 25.7189C639.926 25.3946 640.755 25.2275 641.592 25.2275C642.429 25.2275 643.258 25.3946 644.03 25.7189C644.801 26.0433 645.501 26.5183 646.086 27.1163L703.411 84.4486C704.006 85.036 704.479 85.7359 704.801 86.5075C705.124 87.2792 705.29 88.1071 705.29 88.9435C705.29 89.7798 705.124 90.6078 704.801 91.3795C704.479 92.1511 704.006 92.8509 703.411 93.4384L661.255 135.466C660.377 136.335 659.681 137.369 659.206 138.509C658.731 139.649 658.486 140.872 658.486 142.107C658.486 143.342 658.731 144.565 659.206 145.704C659.681 146.844 660.377 147.879 661.255 148.748C663.015 150.502 665.399 151.487 667.884 151.487C670.368 151.487 672.752 150.502 674.513 148.748L716.534 106.653C717.121 106.058 717.821 105.585 718.593 105.263C719.364 104.94 720.192 104.774 721.028 104.774C721.865 104.774 722.692 104.94 723.464 105.263C724.235 105.585 724.935 106.058 725.523 106.653L740.983 122.093C742.766 123.805 745.141 124.76 747.612 124.76C750.083 124.76 752.458 123.805 754.241 122.093C755.114 121.224 755.806 120.192 756.28 119.055C756.753 117.918 756.998 116.699 757 115.468C757.002 114.237 756.761 113.017 756.292 111.878C755.822 110.74 755.133 109.705 754.264 108.833V108.833Z" fill="#C8D07F" fill-opacity="0.4"/>
<path d="M596.563 268.333C594.772 266.628 592.396 265.677 589.926 265.677C587.456 265.677 585.08 266.628 583.289 268.333L514.962 336.833C514.375 337.429 513.675 337.902 512.904 338.226C512.133 338.549 511.305 338.715 510.47 338.715C509.634 338.715 508.806 338.549 508.035 338.226C507.264 337.902 506.565 337.429 505.977 336.833L474.936 305.723C474.338 305.136 473.864 304.436 473.54 303.663C473.215 302.89 473.048 302.06 473.048 301.221C473.048 300.383 473.215 299.552 473.54 298.779C473.864 298.006 474.338 297.306 474.936 296.719L479.114 292.51C480.322 291.348 481.932 290.7 483.606 290.7C485.28 290.7 486.89 291.348 488.098 292.51L503.821 308.267C505.579 310.028 507.962 311.018 510.447 311.018C512.932 311.018 515.316 310.028 517.073 308.267C518.831 306.506 519.818 304.117 519.818 301.626C519.818 299.136 518.831 296.747 517.073 294.986L501.463 279.228C500.871 278.638 500.401 277.937 500.08 277.164C499.759 276.392 499.594 275.563 499.594 274.726C499.594 273.889 499.759 273.061 500.08 272.288C500.401 271.516 500.871 270.814 501.463 270.224L543.42 228.175C544.291 227.303 544.982 226.268 545.453 225.128C545.924 223.989 546.167 222.768 546.167 221.534C546.167 220.301 545.924 219.079 545.453 217.94C544.982 216.8 544.291 215.765 543.42 214.894L516.691 188.174C515.837 187.232 514.801 186.474 513.646 185.945C512.491 185.417 511.241 185.128 509.972 185.097C508.702 185.067 507.44 185.294 506.261 185.767C505.082 186.239 504.011 186.946 503.112 187.845C502.213 188.744 501.506 189.817 501.033 190.997C500.56 192.178 500.33 193.443 500.359 194.715C500.387 195.987 500.673 197.241 501.199 198.399C501.724 199.558 502.479 200.597 503.417 201.455L519.027 217.212C519.625 217.799 520.1 218.499 520.424 219.272C520.748 220.046 520.915 220.876 520.915 221.714C520.915 222.553 520.748 223.383 520.424 224.156C520.1 224.929 519.625 225.629 519.027 226.216L461.819 283.573C460.613 284.739 459.002 285.391 457.327 285.391C455.651 285.391 454.04 284.739 452.834 283.573L422.242 252.914C421.645 252.327 421.17 251.626 420.846 250.853C420.522 250.08 420.355 249.25 420.355 248.412C420.355 247.573 420.522 246.743 420.846 245.97C421.17 245.197 421.645 244.496 422.242 243.91L437.718 228.4C439.345 226.612 440.223 224.265 440.169 221.846C440.115 219.427 439.133 217.122 437.427 215.41C435.721 213.697 433.423 212.709 431.009 212.651C428.595 212.592 426.252 213.468 424.466 215.096L397.737 241.703C395.984 243.467 395 245.855 395 248.344C395 250.833 395.984 253.221 397.737 254.985L503.776 361.257C505.536 363.013 507.919 364 510.402 364C512.886 364 515.269 363.013 517.028 361.257L596.563 281.547C598.296 279.786 599.267 277.413 599.267 274.94C599.267 272.467 598.296 270.094 596.563 268.333Z" fill="#C8D07F" fill-opacity="0.4"/>
<path d="M623.264 241.833L517.199 135.732C515.432 133.982 513.045 133 510.558 133C508.072 133 505.685 133.982 503.918 135.732L450.706 188.951C448.956 190.718 447.975 193.105 447.975 195.592C447.975 198.079 448.956 200.466 450.706 202.233L466.009 217.538C466.61 218.123 467.087 218.822 467.413 219.594C467.739 220.366 467.907 221.195 467.907 222.033C467.907 222.871 467.739 223.701 467.413 224.473C467.087 225.245 466.61 225.944 466.009 226.528L450.526 242.036C448.768 243.794 447.78 246.179 447.78 248.666C447.78 251.152 448.768 253.537 450.526 255.296C452.284 257.054 454.669 258.042 457.155 258.042C459.642 258.042 462.026 257.054 463.784 255.296L490.39 228.708C492.151 226.947 493.14 224.558 493.14 222.067C493.14 219.576 492.151 217.188 490.39 215.426L475.087 200.121C474.489 199.535 474.014 198.836 473.69 198.064C473.366 197.292 473.199 196.463 473.199 195.626C473.199 194.789 473.366 193.96 473.69 193.188C474.014 192.416 474.489 191.717 475.087 191.131L506.098 160.116C506.684 159.518 507.383 159.043 508.155 158.719C508.926 158.395 509.755 158.228 510.592 158.228C511.429 158.228 512.258 158.395 513.03 158.719C513.801 159.043 514.501 159.518 515.086 160.116L572.411 217.449C573.006 218.036 573.479 218.736 573.801 219.508C574.124 220.279 574.29 221.107 574.29 221.943C574.29 222.78 574.124 223.608 573.801 224.379C573.479 225.151 573.006 225.851 572.411 226.438L530.255 268.466C529.377 269.335 528.681 270.369 528.206 271.509C527.731 272.649 527.486 273.872 527.486 275.107C527.486 276.342 527.731 277.565 528.206 278.704C528.681 279.844 529.377 280.879 530.255 281.748C532.015 283.502 534.399 284.487 536.884 284.487C539.368 284.487 541.752 283.502 543.513 281.748L585.534 239.653C586.121 239.058 586.821 238.585 587.593 238.263C588.364 237.94 589.192 237.774 590.028 237.774C590.865 237.774 591.692 237.94 592.464 238.263C593.235 238.585 593.935 239.058 594.523 239.653L609.983 255.093C611.766 256.805 614.141 257.76 616.612 257.76C619.083 257.76 621.458 256.805 623.241 255.093C624.114 254.224 624.806 253.192 625.28 252.055C625.753 250.918 625.998 249.699 626 248.468C626.002 247.237 625.761 246.017 625.292 244.878C624.822 243.74 624.133 242.705 623.264 241.833V241.833Z" fill="#C8D07F" fill-opacity="0.4"/>
<path d="M464.563 401.333C462.772 399.628 460.396 398.677 457.926 398.677C455.456 398.677 453.08 399.628 451.289 401.333L382.962 469.833C382.375 470.429 381.675 470.902 380.904 471.226C380.133 471.549 379.305 471.715 378.47 471.715C377.634 471.715 376.806 471.549 376.035 471.226C375.264 470.902 374.565 470.429 373.977 469.833L342.936 438.723C342.338 438.136 341.864 437.436 341.54 436.663C341.215 435.89 341.048 435.06 341.048 434.221C341.048 433.383 341.215 432.552 341.54 431.779C341.864 431.006 342.338 430.306 342.936 429.719L347.114 425.51C348.322 424.348 349.932 423.7 351.606 423.7C353.28 423.7 354.89 424.348 356.098 425.51L371.821 441.267C373.579 443.028 375.962 444.018 378.447 444.018C380.932 444.018 383.316 443.028 385.073 441.267C386.831 439.506 387.818 437.117 387.818 434.626C387.818 432.136 386.831 429.747 385.073 427.986L369.463 412.228C368.871 411.638 368.401 410.937 368.08 410.164C367.759 409.392 367.594 408.563 367.594 407.726C367.594 406.889 367.759 406.061 368.08 405.288C368.401 404.516 368.871 403.814 369.463 403.224L411.42 361.175C412.291 360.303 412.982 359.268 413.453 358.128C413.924 356.989 414.167 355.768 414.167 354.534C414.167 353.301 413.924 352.079 413.453 350.94C412.982 349.8 412.291 348.765 411.42 347.894L384.691 321.174C383.837 320.232 382.801 319.474 381.646 318.945C380.491 318.417 379.241 318.128 377.972 318.097C376.702 318.067 375.44 318.294 374.261 318.767C373.082 319.239 372.011 319.946 371.112 320.845C370.213 321.744 369.506 322.817 369.033 323.997C368.56 325.178 368.33 326.443 368.359 327.715C368.387 328.987 368.673 330.241 369.199 331.399C369.724 332.558 370.479 333.597 371.417 334.455L387.027 350.212C387.625 350.799 388.1 351.499 388.424 352.272C388.748 353.046 388.915 353.876 388.915 354.714C388.915 355.553 388.748 356.383 388.424 357.156C388.1 357.929 387.625 358.629 387.027 359.216L329.819 416.573C328.613 417.739 327.002 418.391 325.327 418.391C323.651 418.391 322.04 417.739 320.834 416.573L290.242 385.914C289.645 385.327 289.17 384.626 288.846 383.853C288.522 383.08 288.355 382.25 288.355 381.412C288.355 380.573 288.522 379.743 288.846 378.97C289.17 378.197 289.645 377.496 290.242 376.91L305.718 361.4C307.345 359.612 308.223 357.265 308.169 354.846C308.115 352.427 307.133 350.122 305.427 348.41C303.721 346.697 301.423 345.709 299.009 345.651C296.595 345.592 294.252 346.468 292.466 348.096L265.737 374.703C263.984 376.467 263 378.855 263 381.344C263 383.833 263.984 386.221 265.737 387.985L371.776 494.257C373.536 496.013 375.919 497 378.402 497C380.886 497 383.269 496.013 385.028 494.257L464.563 414.547C466.296 412.786 467.267 410.413 467.267 407.94C467.267 405.467 466.296 403.094 464.563 401.333Z" fill="#C8D07F" fill-opacity="0.4"/>
<path d="M491.264 374.833L385.199 268.732C383.432 266.982 381.045 266 378.558 266C376.072 266 373.685 266.982 371.918 268.732L318.706 321.951C316.956 323.718 315.975 326.105 315.975 328.592C315.975 331.079 316.956 333.466 318.706 335.233L334.009 350.538C334.61 351.123 335.087 351.822 335.413 352.594C335.739 353.366 335.907 354.195 335.907 355.033C335.907 355.871 335.739 356.701 335.413 357.473C335.087 358.245 334.61 358.944 334.009 359.528L318.526 375.036C316.768 376.794 315.78 379.179 315.78 381.666C315.78 384.152 316.768 386.537 318.526 388.296C320.284 390.054 322.669 391.042 325.155 391.042C327.642 391.042 330.026 390.054 331.784 388.296L358.39 361.708C360.151 359.947 361.14 357.558 361.14 355.067C361.14 352.576 360.151 350.188 358.39 348.426L343.087 333.121C342.489 332.535 342.014 331.836 341.69 331.064C341.366 330.292 341.199 329.463 341.199 328.626C341.199 327.789 341.366 326.96 341.69 326.188C342.014 325.416 342.489 324.717 343.087 324.131L374.098 293.116C374.684 292.518 375.383 292.043 376.155 291.719C376.926 291.395 377.755 291.228 378.592 291.228C379.429 291.228 380.258 291.395 381.03 291.719C381.801 292.043 382.501 292.518 383.086 293.116L440.411 350.449C441.006 351.036 441.479 351.736 441.801 352.508C442.124 353.279 442.29 354.107 442.29 354.943C442.29 355.78 442.124 356.608 441.801 357.379C441.479 358.151 441.006 358.851 440.411 359.438L398.255 401.466C397.377 402.335 396.681 403.369 396.206 404.509C395.731 405.649 395.486 406.872 395.486 408.107C395.486 409.342 395.731 410.565 396.206 411.704C396.681 412.844 397.377 413.879 398.255 414.748C400.015 416.502 402.399 417.487 404.884 417.487C407.368 417.487 409.752 416.502 411.513 414.748L453.534 372.653C454.121 372.058 454.821 371.585 455.593 371.263C456.364 370.94 457.192 370.774 458.028 370.774C458.865 370.774 459.692 370.94 460.464 371.263C461.235 371.585 461.935 372.058 462.523 372.653L477.983 388.093C479.766 389.805 482.141 390.76 484.612 390.76C487.083 390.76 489.458 389.805 491.241 388.093C492.114 387.224 492.806 386.192 493.28 385.055C493.753 383.918 493.998 382.699 494 381.468C494.002 380.237 493.761 379.017 493.292 377.878C492.822 376.74 492.133 375.705 491.264 374.833V374.833Z" fill="#C8D07F" fill-opacity="0.4"/>
<path d="M860.563 268.333C858.772 266.628 856.396 265.677 853.926 265.677C851.456 265.677 849.08 266.628 847.289 268.333L778.962 336.833C778.375 337.429 777.675 337.902 776.904 338.226C776.133 338.549 775.305 338.715 774.47 338.715C773.634 338.715 772.806 338.549 772.035 338.226C771.264 337.902 770.565 337.429 769.977 336.833L738.936 305.723C738.338 305.136 737.864 304.436 737.54 303.663C737.215 302.89 737.048 302.06 737.048 301.221C737.048 300.383 737.215 299.552 737.54 298.779C737.864 298.006 738.338 297.306 738.936 296.719L743.114 292.51C744.322 291.348 745.932 290.7 747.606 290.7C749.28 290.7 750.89 291.348 752.098 292.51L767.821 308.267C769.579 310.028 771.962 311.018 774.447 311.018C776.932 311.018 779.316 310.028 781.073 308.267C782.831 306.506 783.818 304.117 783.818 301.626C783.818 299.136 782.831 296.747 781.073 294.986L765.463 279.228C764.871 278.638 764.401 277.937 764.08 277.164C763.759 276.392 763.594 275.563 763.594 274.726C763.594 273.889 763.759 273.061 764.08 272.288C764.401 271.516 764.871 270.814 765.463 270.224L807.42 228.175C808.291 227.303 808.982 226.268 809.453 225.128C809.924 223.989 810.167 222.768 810.167 221.534C810.167 220.301 809.924 219.079 809.453 217.94C808.982 216.8 808.291 215.765 807.42 214.894L780.691 188.174C779.837 187.232 778.801 186.474 777.646 185.945C776.491 185.417 775.241 185.128 773.972 185.097C772.702 185.067 771.44 185.294 770.261 185.767C769.082 186.239 768.011 186.946 767.112 187.845C766.213 188.744 765.506 189.817 765.033 190.997C764.56 192.178 764.33 193.443 764.359 194.715C764.387 195.987 764.673 197.241 765.199 198.399C765.724 199.558 766.479 200.597 767.417 201.455L783.027 217.212C783.625 217.799 784.1 218.499 784.424 219.272C784.748 220.046 784.915 220.876 784.915 221.714C784.915 222.553 784.748 223.383 784.424 224.156C784.1 224.929 783.625 225.629 783.027 226.216L725.819 283.573C724.613 284.739 723.002 285.391 721.327 285.391C719.651 285.391 718.04 284.739 716.834 283.573L686.242 252.914C685.645 252.327 685.17 251.626 684.846 250.853C684.522 250.08 684.355 249.25 684.355 248.412C684.355 247.573 684.522 246.743 684.846 245.97C685.17 245.197 685.645 244.496 686.242 243.91L701.718 228.4C703.345 226.612 704.223 224.265 704.169 221.846C704.115 219.427 703.133 217.122 701.427 215.41C699.721 213.697 697.423 212.709 695.009 212.651C692.595 212.592 690.252 213.468 688.466 215.096L661.737 241.703C659.984 243.467 659 245.855 659 248.344C659 250.833 659.984 253.221 661.737 254.985L767.776 361.257C769.536 363.013 771.919 364 774.402 364C776.886 364 779.269 363.013 781.028 361.257L860.563 281.547C862.296 279.786 863.267 277.413 863.267 274.94C863.267 272.467 862.296 270.094 860.563 268.333Z" fill="#C8D07F" fill-opacity="0.4"/>
<path d="M887.264 241.833L781.199 135.732C779.432 133.982 777.045 133 774.558 133C772.072 133 769.685 133.982 767.918 135.732L714.706 188.951C712.956 190.718 711.975 193.105 711.975 195.592C711.975 198.079 712.956 200.466 714.706 202.233L730.009 217.538C730.61 218.123 731.087 218.822 731.413 219.594C731.739 220.366 731.907 221.195 731.907 222.033C731.907 222.871 731.739 223.701 731.413 224.473C731.087 225.245 730.61 225.944 730.009 226.528L714.526 242.036C712.768 243.794 711.78 246.179 711.78 248.666C711.78 251.152 712.768 253.537 714.526 255.296C716.284 257.054 718.669 258.042 721.155 258.042C723.642 258.042 726.026 257.054 727.784 255.296L754.39 228.708C756.151 226.947 757.14 224.558 757.14 222.067C757.14 219.576 756.151 217.188 754.39 215.426L739.087 200.121C738.489 199.535 738.014 198.836 737.69 198.064C737.366 197.292 737.199 196.463 737.199 195.626C737.199 194.789 737.366 193.96 737.69 193.188C738.014 192.416 738.489 191.717 739.087 191.131L770.098 160.116C770.684 159.518 771.383 159.043 772.155 158.719C772.926 158.395 773.755 158.228 774.592 158.228C775.429 158.228 776.258 158.395 777.03 158.719C777.801 159.043 778.501 159.518 779.086 160.116L836.411 217.449C837.006 218.036 837.479 218.736 837.801 219.508C838.124 220.279 838.29 221.107 838.29 221.943C838.29 222.78 838.124 223.608 837.801 224.379C837.479 225.151 837.006 225.851 836.411 226.438L794.255 268.466C793.377 269.335 792.681 270.369 792.206 271.509C791.731 272.649 791.486 273.872 791.486 275.107C791.486 276.342 791.731 277.565 792.206 278.704C792.681 279.844 793.377 280.879 794.255 281.748C796.015 283.502 798.399 284.487 800.884 284.487C803.368 284.487 805.752 283.502 807.513 281.748L849.534 239.653C850.121 239.058 850.821 238.585 851.593 238.263C852.364 237.94 853.192 237.774 854.028 237.774C854.865 237.774 855.692 237.94 856.464 238.263C857.235 238.585 857.935 239.058 858.523 239.653L873.983 255.093C875.766 256.805 878.141 257.76 880.612 257.76C883.083 257.76 885.458 256.805 887.241 255.093C888.114 254.224 888.806 253.192 889.28 252.055C889.753 250.918 889.998 249.699 890 248.468C890.002 247.237 889.761 246.017 889.292 244.878C888.822 243.74 888.133 242.705 887.264 241.833V241.833Z" fill="#C8D07F" fill-opacity="0.4"/>
<path d="M728.563 401.333C726.772 399.628 724.396 398.677 721.926 398.677C719.456 398.677 717.08 399.628 715.289 401.333L646.962 469.833C646.375 470.429 645.675 470.902 644.904 471.226C644.133 471.549 643.305 471.715 642.47 471.715C641.634 471.715 640.806 471.549 640.035 471.226C639.264 470.902 638.565 470.429 637.977 469.833L606.936 438.723C606.338 438.136 605.864 437.436 605.54 436.663C605.215 435.89 605.048 435.06 605.048 434.221C605.048 433.383 605.215 432.552 605.54 431.779C605.864 431.006 606.338 430.306 606.936 429.719L611.114 425.51C612.322 424.348 613.932 423.7 615.606 423.7C617.28 423.7 618.89 424.348 620.098 425.51L635.821 441.267C637.579 443.028 639.962 444.018 642.447 444.018C644.932 444.018 647.316 443.028 649.073 441.267C650.831 439.506 651.818 437.117 651.818 434.626C651.818 432.136 650.831 429.747 649.073 427.986L633.463 412.228C632.871 411.638 632.401 410.937 632.08 410.164C631.759 409.392 631.594 408.563 631.594 407.726C631.594 406.889 631.759 406.061 632.08 405.288C632.401 404.516 632.871 403.814 633.463 403.224L675.42 361.175C676.291 360.303 676.982 359.268 677.453 358.128C677.924 356.989 678.167 355.768 678.167 354.534C678.167 353.301 677.924 352.079 677.453 350.94C676.982 349.8 676.291 348.765 675.42 347.894L648.691 321.174C647.837 320.232 646.801 319.474 645.646 318.945C644.491 318.417 643.241 318.128 641.972 318.097C640.702 318.067 639.44 318.294 638.261 318.767C637.082 319.239 636.011 319.946 635.112 320.845C634.213 321.744 633.506 322.817 633.033 323.997C632.56 325.178 632.33 326.443 632.359 327.715C632.387 328.987 632.673 330.241 633.199 331.399C633.724 332.558 634.479 333.597 635.417 334.455L651.027 350.212C651.625 350.799 652.1 351.499 652.424 352.272C652.748 353.046 652.915 353.876 652.915 354.714C652.915 355.553 652.748 356.383 652.424 357.156C652.1 357.929 651.625 358.629 651.027 359.216L593.819 416.573C592.613 417.739 591.002 418.391 589.327 418.391C587.651 418.391 586.04 417.739 584.834 416.573L554.242 385.914C553.645 385.327 553.17 384.626 552.846 383.853C552.522 383.08 552.355 382.25 552.355 381.412C552.355 380.573 552.522 379.743 552.846 378.97C553.17 378.197 553.645 377.496 554.242 376.91L569.718 361.4C571.345 359.612 572.223 357.265 572.169 354.846C572.115 352.427 571.133 350.122 569.427 348.41C567.721 346.697 565.423 345.709 563.009 345.651C560.595 345.592 558.252 346.468 556.466 348.096L529.737 374.703C527.984 376.467 527 378.855 527 381.344C527 383.833 527.984 386.221 529.737 387.985L635.776 494.257C637.536 496.013 639.919 497 642.402 497C644.886 497 647.269 496.013 649.028 494.257L728.563 414.547C730.296 412.786 731.267 410.413 731.267 407.94C731.267 405.467 730.296 403.094 728.563 401.333Z" fill="#C8D07F" fill-opacity="0.4"/>
<path d="M755.264 374.833L649.199 268.732C647.432 266.982 645.045 266 642.558 266C640.072 266 637.685 266.982 635.918 268.732L582.706 321.951C580.956 323.718 579.975 326.105 579.975 328.592C579.975 331.079 580.956 333.466 582.706 335.233L598.009 350.538C598.61 351.123 599.087 351.822 599.413 352.594C599.739 353.366 599.907 354.195 599.907 355.033C599.907 355.871 599.739 356.701 599.413 357.473C599.087 358.245 598.61 358.944 598.009 359.528L582.526 375.036C580.768 376.794 579.78 379.179 579.78 381.666C579.78 384.152 580.768 386.537 582.526 388.296C584.284 390.054 586.669 391.042 589.155 391.042C591.642 391.042 594.026 390.054 595.784 388.296L622.39 361.708C624.151 359.947 625.14 357.558 625.14 355.067C625.14 352.576 624.151 350.188 622.39 348.426L607.087 333.121C606.489 332.535 606.014 331.836 605.69 331.064C605.366 330.292 605.199 329.463 605.199 328.626C605.199 327.789 605.366 326.96 605.69 326.188C606.014 325.416 606.489 324.717 607.087 324.131L638.098 293.116C638.684 292.518 639.383 292.043 640.155 291.719C640.926 291.395 641.755 291.228 642.592 291.228C643.429 291.228 644.258 291.395 645.03 291.719C645.801 292.043 646.501 292.518 647.086 293.116L704.411 350.449C705.006 351.036 705.479 351.736 705.801 352.508C706.124 353.279 706.29 354.107 706.29 354.943C706.29 355.78 706.124 356.608 705.801 357.379C705.479 358.151 705.006 358.851 704.411 359.438L662.255 401.466C661.377 402.335 660.681 403.369 660.206 404.509C659.731 405.649 659.486 406.872 659.486 408.107C659.486 409.342 659.731 410.565 660.206 411.704C660.681 412.844 661.377 413.879 662.255 414.748C664.015 416.502 666.399 417.487 668.884 417.487C671.368 417.487 673.752 416.502 675.513 414.748L717.534 372.653C718.121 372.058 718.821 371.585 719.593 371.263C720.364 370.94 721.192 370.774 722.028 370.774C722.865 370.774 723.692 370.94 724.464 371.263C725.235 371.585 725.935 372.058 726.523 372.653L741.983 388.093C743.766 389.805 746.141 390.76 748.612 390.76C751.083 390.76 753.458 389.805 755.241 388.093C756.114 387.224 756.806 386.192 757.28 385.055C757.753 383.918 757.998 382.699 758 381.468C758.002 380.237 757.761 379.017 757.292 377.878C756.822 376.74 756.133 375.705 755.264 374.833V374.833Z" fill="#C8D07F" fill-opacity="0.4"/>
<path d="M333.563 268.333C331.772 266.628 329.396 265.677 326.926 265.677C324.456 265.677 322.08 266.628 320.289 268.333L251.962 336.833C251.375 337.429 250.675 337.902 249.904 338.226C249.133 338.549 248.305 338.715 247.47 338.715C246.634 338.715 245.806 338.549 245.035 338.226C244.264 337.902 243.565 337.429 242.977 336.833L211.936 305.723C211.338 305.136 210.864 304.436 210.54 303.663C210.215 302.89 210.048 302.06 210.048 301.221C210.048 300.383 210.215 299.552 210.54 298.779C210.864 298.006 211.338 297.306 211.936 296.719L216.114 292.51C217.322 291.348 218.932 290.7 220.606 290.7C222.28 290.7 223.89 291.348 225.098 292.51L240.821 308.267C242.579 310.028 244.962 311.018 247.447 311.018C249.932 311.018 252.316 310.028 254.073 308.267C255.831 306.506 256.818 304.117 256.818 301.626C256.818 299.136 255.831 296.747 254.073 294.986L238.463 279.228C237.871 278.638 237.401 277.937 237.08 277.164C236.759 276.392 236.594 275.563 236.594 274.726C236.594 273.889 236.759 273.061 237.08 272.288C237.401 271.516 237.871 270.814 238.463 270.224L280.42 228.175C281.291 227.303 281.982 226.268 282.453 225.128C282.924 223.989 283.167 222.768 283.167 221.534C283.167 220.301 282.924 219.079 282.453 217.94C281.982 216.8 281.291 215.765 280.42 214.894L253.691 188.174C252.837 187.232 251.801 186.474 250.646 185.945C249.491 185.417 248.241 185.128 246.972 185.097C245.702 185.067 244.44 185.294 243.261 185.767C242.082 186.239 241.011 186.946 240.112 187.845C239.213 188.744 238.506 189.817 238.033 190.997C237.56 192.178 237.33 193.443 237.359 194.715C237.387 195.987 237.673 197.241 238.199 198.399C238.724 199.558 239.479 200.597 240.417 201.455L256.027 217.212C256.625 217.799 257.1 218.499 257.424 219.272C257.748 220.046 257.915 220.876 257.915 221.714C257.915 222.553 257.748 223.383 257.424 224.156C257.1 224.929 256.625 225.629 256.027 226.216L198.819 283.573C197.613 284.739 196.002 285.391 194.327 285.391C192.651 285.391 191.04 284.739 189.834 283.573L159.242 252.914C158.645 252.327 158.17 251.626 157.846 250.853C157.522 250.08 157.355 249.25 157.355 248.412C157.355 247.573 157.522 246.743 157.846 245.97C158.17 245.197 158.645 244.496 159.242 243.91L174.718 228.4C176.345 226.612 177.223 224.265 177.169 221.846C177.115 219.427 176.133 217.122 174.427 215.41C172.721 213.697 170.423 212.709 168.009 212.651C165.595 212.592 163.252 213.468 161.466 215.096L134.737 241.703C132.984 243.467 132 245.855 132 248.344C132 250.833 132.984 253.221 134.737 254.985L240.776 361.257C242.536 363.013 244.919 364 247.402 364C249.886 364 252.269 363.013 254.028 361.257L333.563 281.547C335.296 279.786 336.267 277.413 336.267 274.94C336.267 272.467 335.296 270.094 333.563 268.333Z" fill="#C8D07F" fill-opacity="0.4"/>
<path d="M360.264 241.833L254.199 135.732C252.432 133.982 250.045 133 247.558 133C245.072 133 242.685 133.982 240.918 135.732L187.706 188.951C185.956 190.718 184.975 193.105 184.975 195.592C184.975 198.079 185.956 200.466 187.706 202.233L203.009 217.538C203.61 218.123 204.087 218.822 204.413 219.594C204.739 220.366 204.907 221.195 204.907 222.033C204.907 222.871 204.739 223.701 204.413 224.473C204.087 225.245 203.61 225.944 203.009 226.528L187.526 242.036C185.768 243.794 184.78 246.179 184.78 248.666C184.78 251.152 185.768 253.537 187.526 255.296C189.284 257.054 191.669 258.042 194.155 258.042C196.642 258.042 199.026 257.054 200.784 255.296L227.39 228.708C229.151 226.947 230.14 224.558 230.14 222.067C230.14 219.576 229.151 217.188 227.39 215.426L212.087 200.121C211.489 199.535 211.014 198.836 210.69 198.064C210.366 197.292 210.199 196.463 210.199 195.626C210.199 194.789 210.366 193.96 210.69 193.188C211.014 192.416 211.489 191.717 212.087 191.131L243.098 160.116C243.684 159.518 244.383 159.043 245.155 158.719C245.926 158.395 246.755 158.228 247.592 158.228C248.429 158.228 249.258 158.395 250.03 158.719C250.801 159.043 251.501 159.518 252.086 160.116L309.411 217.449C310.006 218.036 310.479 218.736 310.801 219.508C311.124 220.279 311.29 221.107 311.29 221.943C311.29 222.78 311.124 223.608 310.801 224.379C310.479 225.151 310.006 225.851 309.411 226.438L267.255 268.466C266.377 269.335 265.681 270.369 265.206 271.509C264.731 272.649 264.486 273.872 264.486 275.107C264.486 276.342 264.731 277.565 265.206 278.704C265.681 279.844 266.377 280.879 267.255 281.748C269.015 283.502 271.399 284.487 273.884 284.487C276.368 284.487 278.752 283.502 280.513 281.748L322.534 239.653C323.121 239.058 323.821 238.585 324.593 238.263C325.364 237.94 326.192 237.774 327.028 237.774C327.865 237.774 328.692 237.94 329.464 238.263C330.235 238.585 330.935 239.058 331.523 239.653L346.983 255.093C348.766 256.805 351.141 257.76 353.612 257.76C356.083 257.76 358.458 256.805 360.241 255.093C361.114 254.224 361.806 253.192 362.28 252.055C362.753 250.918 362.998 249.699 363 248.468C363.002 247.237 362.761 246.017 362.292 244.878C361.822 243.74 361.133 242.705 360.264 241.833V241.833Z" fill="#C8D07F" fill-opacity="0.4"/>
<path d="M201.563 401.333C199.772 399.628 197.396 398.677 194.926 398.677C192.456 398.677 190.08 399.628 188.289 401.333L119.962 469.833C119.375 470.429 118.675 470.902 117.904 471.226C117.133 471.549 116.305 471.715 115.47 471.715C114.634 471.715 113.806 471.549 113.035 471.226C112.264 470.902 111.565 470.429 110.977 469.833L79.9361 438.723C79.3384 438.136 78.8636 437.436 78.5395 436.663C78.2154 435.89 78.0484 435.06 78.0484 434.221C78.0484 433.383 78.2154 432.552 78.5395 431.779C78.8636 431.006 79.3384 430.306 79.9361 429.719L84.1139 425.51C85.3225 424.348 86.932 423.7 88.6062 423.7C90.2804 423.7 91.8899 424.348 93.0984 425.51L108.821 441.267C110.579 443.028 112.962 444.018 115.447 444.018C117.932 444.018 120.316 443.028 122.073 441.267C123.831 439.506 124.818 437.117 124.818 434.626C124.818 432.136 123.831 429.747 122.073 427.986L106.463 412.228C105.871 411.638 105.401 410.937 105.08 410.164C104.759 409.392 104.594 408.563 104.594 407.726C104.594 406.889 104.759 406.061 105.08 405.288C105.401 404.516 105.871 403.814 106.463 403.224L148.42 361.175C149.291 360.303 149.982 359.268 150.453 358.128C150.924 356.989 151.167 355.768 151.167 354.534C151.167 353.301 150.924 352.079 150.453 350.94C149.982 349.8 149.291 348.765 148.42 347.894L121.691 321.174C120.837 320.232 119.801 319.474 118.646 318.945C117.491 318.417 116.241 318.128 114.972 318.097C113.702 318.067 112.44 318.294 111.261 318.767C110.082 319.239 109.011 319.946 108.112 320.845C107.213 321.744 106.506 322.817 106.033 323.997C105.56 325.178 105.33 326.443 105.359 327.715C105.387 328.987 105.673 330.241 106.199 331.399C106.724 332.558 107.479 333.597 108.417 334.455L124.027 350.212C124.625 350.799 125.1 351.499 125.424 352.272C125.748 353.046 125.915 353.876 125.915 354.714C125.915 355.553 125.748 356.383 125.424 357.156C125.1 357.929 124.625 358.629 124.027 359.216L66.8188 416.573C65.6129 417.739 64.0025 418.391 62.3266 418.391C60.6507 418.391 59.0402 417.739 57.8344 416.573L27.2423 385.914C26.6446 385.327 26.1698 384.626 25.8457 383.853C25.5216 383.08 25.3546 382.25 25.3546 381.412C25.3546 380.573 25.5216 379.743 25.8457 378.97C26.1698 378.197 26.6446 377.496 27.2423 376.91L42.718 361.4C44.3454 359.612 45.2231 357.265 45.169 354.846C45.1148 352.427 44.1328 350.122 42.427 348.41C40.7212 346.697 38.4228 345.709 36.0092 345.651C33.5955 345.592 31.2521 346.468 29.4659 348.096L2.73704 374.703C0.984135 376.467 0 378.855 0 381.344C0 383.833 0.984135 386.221 2.73704 387.985L108.776 494.257C110.536 496.013 112.919 497 115.402 497C117.886 497 120.269 496.013 122.028 494.257L201.563 414.547C203.296 412.786 204.267 410.413 204.267 407.94C204.267 405.467 203.296 403.094 201.563 401.333Z" fill="#C8D07F" fill-opacity="0.4"/>
<path d="M228.264 374.833L122.199 268.732C120.432 266.982 118.045 266 115.558 266C113.072 266 110.685 266.982 108.918 268.732L55.7059 321.951C53.9563 323.718 52.9748 326.105 52.9748 328.592C52.9748 331.079 53.9563 333.466 55.7059 335.233L71.0089 350.538C71.6096 351.123 72.0871 351.822 72.4131 352.594C72.7391 353.366 72.9071 354.195 72.9071 355.033C72.9071 355.871 72.7391 356.701 72.4131 357.473C72.0871 358.245 71.6096 358.944 71.0089 359.528L55.5261 375.036C53.768 376.794 52.7803 379.179 52.7803 381.666C52.7803 384.152 53.768 386.537 55.5261 388.296C57.2842 390.054 59.6688 391.042 62.1552 391.042C64.6416 391.042 67.0261 390.054 68.7843 388.296L95.3903 361.708C97.1508 359.947 98.1399 357.558 98.1399 355.067C98.1399 352.576 97.1508 350.188 95.3903 348.426L80.0873 333.121C79.4894 332.535 79.0144 331.836 78.6901 331.064C78.3658 330.292 78.1988 329.463 78.1988 328.626C78.1988 327.789 78.3658 326.96 78.6901 326.188C79.0144 325.416 79.4894 324.717 80.0873 324.131L111.098 293.116C111.684 292.518 112.383 292.043 113.155 291.719C113.926 291.395 114.755 291.228 115.592 291.228C116.429 291.228 117.258 291.395 118.03 291.719C118.801 292.043 119.501 292.518 120.086 293.116L177.411 350.449C178.006 351.036 178.479 351.736 178.801 352.508C179.124 353.279 179.29 354.107 179.29 354.943C179.29 355.78 179.124 356.608 178.801 357.379C178.479 358.151 178.006 358.851 177.411 359.438L135.255 401.466C134.377 402.335 133.681 403.369 133.206 404.509C132.731 405.649 132.486 406.872 132.486 408.107C132.486 409.342 132.731 410.565 133.206 411.704C133.681 412.844 134.377 413.879 135.255 414.748C137.015 416.502 139.399 417.487 141.884 417.487C144.368 417.487 146.752 416.502 148.513 414.748L190.534 372.653C191.121 372.058 191.821 371.585 192.593 371.263C193.364 370.94 194.192 370.774 195.028 370.774C195.865 370.774 196.692 370.94 197.464 371.263C198.235 371.585 198.935 372.058 199.523 372.653L214.983 388.093C216.766 389.805 219.141 390.76 221.612 390.76C224.083 390.76 226.458 389.805 228.241 388.093C229.114 387.224 229.806 386.192 230.28 385.055C230.753 383.918 230.998 382.699 231 381.468C231.002 380.237 230.761 379.017 230.292 377.878C229.822 376.74 229.133 375.705 228.264 374.833V374.833Z" fill="#C8D07F" fill-opacity="0.4"/>
</svg>
